<svg version="1" xmlns="http://www.w3.org/2000/svg" width="682.667" height="682.667" viewBox="0 0 512.000000 512.000000"><path d="M327.4 28.1c-1 .4-3.5.8-5.4.8-2 .1-4.1.6-4.7 1.2-.8.8-1.3.8-1.7 0-1.1-1.8-2.6-1.3-2.6.9 0 1.4-.7 2-2.1 2-1.8 0-2 .4-1.5 2.5.5 1.9.2 2.5-1.1 2.6-1.2.1-.9.3.7.8 2.5.8 2.5.8-.6 1.5-2 .4-3.4 1.5-3.7 2.8-.5 1.8-1.1 2-4.2 1.5-2.1-.3-3.3-.2-3 .4.4.5.1.9-.5.9-.7 0-.8.6 0 1.9 1.5 2.9 1.3 3-2.1 2.6-1.8-.2-3.7.2-4.5 1-1.7 1.6-1.8 3.5-.3 3.5.5 0 .7.5.4 1.1-.5.6-1.2.4-2-.8-.7-1-1.1-2.1-.9-2.5.2-.4 0-.9-.6-1.3-.5-.3-1.2.6-1.6 2-.3 1.3-1 2.3-1.4 2-.5-.3-1.1-.1-1.5.5-.3.5-.2 1 .3 1s.9.7.9 1.5-.4 1.2-.9.9c-.4-.3-.8.6-.8 1.9 0 2.4-2.1 4.2-3.4 3-1.1-1.1-.6-2.3.9-2.3.8 0 1.5-.5 1.5-1.1 0-.5-.4-.8-.9-.5-.5.3-2.6-.1-4.6-1-3.8-1.6-7.1-1.2-6 .6.9 1.4-.8 1.3-2.3-.2-.7-.7-1.2-1-1.3-.8 0 .3-.2 1.3-.4 2.2-.2 1.1.3 1.8 1.3 1.8 1.5 0 1.5.2.2 1-1 .6-1.1 1-.2 1 .6 0 1.2.5 1.2 1.1 0 .5-.4.8-.9.4-.5-.3-1.2-.1-1.6.5-.4.6-1.1.8-1.6.5-.5-.4-.9.1-.9.9s-.4 1.7-.9 2c-.5.3-.8-.2-.7-1.1 0-1-.8-1.9-1.8-2.1-1.5-.3-1.7 0-1.1 1.4 1.8 4.6 1.9 5.8.1 5.1-1-.4-1.9-.1-2.2.7-.8 2.1-3.2 2.8-5.5 1.6-2.3-1.3-2.5-.3-.2 2.2 1.5 1.7 1.5 1.8-1 1.8-2 0-2.5.4-2 1.5.3.9.2 1.5-.3 1.4-2.7-.5-5.4.3-5.4 1.6 0 .7-.8 1.8-1.7 2.4-1.6.8-1.4 1.1 1.2 2.2 1.7.6 3.9 1.1 5 1.1 1.3-.1 1.6.2.7.7-.9.6-.9 1.3.1 3.4.6 1.5 1.7 2.7 2.3 2.7 1.6 0 2.5 3.8 1.1 4.7-.7.4-2.1.7-3.1.8-1.1 0-2.1.6-2.4 1.3-.2.7 0 1.2.5 1.1 1.8-.3 3.3.2 3.3 1.1 0 .5-.6.7-1.4.4-1.8-.7-3 2.7-1.4 3.8.7.4 2.1.6 3.1.4.9-.2 1.7 0 1.7.5s-.7.9-1.5.9-1.5.7-1.5 1.6c0 .9-.6 1.4-1.3 1.1-1.9-.7-4.2.9-4.2 3 0 1-.6 1.7-1.2 1.6-1.9-.4-1.6 1.2.7 3.2 1.1 1 2 3.1 2 4.7 0 2.6-.3 2.9-2.2 2.2-1.3-.4-2.6-1.2-3-1.8-.6-.8-.8-.8-.8.1 0 .6.5 1.5 1 1.8 1.6 1 1.2 2.5-.5 1.9-.8-.4-1.5-1.3-1.5-2.1s-.4-1.2-1-.8c-.5.3-.7 1.2-.3 2 .3.9-.1 1.5-1.1 1.5-.9 0-1.6.4-1.6 1 0 .5.9 1 2 1s2 .4 2 1c0 .5-.4 1-1 1-.5 0-1 .4-1 1 0 .5.6 1 1.4 1 .7 0 1.9.7 2.6 1.5 1 1.2 1 1.5-.4 1.5-.9 0-1.6-.5-1.6-1.2 0-.6-.6-.3-1.4.8-.8 1-1.2 2.1-1 2.4.3.2.9-.2 1.4-1 .6-1 1-1.1 1-.3 0 .7.7 1 1.5.7 1.7-.7 1.9 0 .6 2.4-.7 1.2-.3 2.4 1.1 4.2l2.1 2.5-.8-2.4c-.5-1.6-.3-2.6.6-3.2 1.2-.8 1.2-1.1-.1-1.8-1.6-1.1-.7-2.7.9-1.6 1.4.8 1.4 4.5.1 4.5-.5 0-.7.7-.3 1.6.4 1-.1 2.2-1.1 3-1.4 1-1.5 1.7-.7 3.3.6 1.1 1.1 2.2 1.1 2.6 0 .8-5.2-.6-6.7-1.8-.9-.7-1.3-.5-1.3.7 0 .9.5 1.6 1 1.6.6 0 1 .4 1 .9 0 .6-.9.8-2.1.6-1.5-.3-1.9 0-1.5 1 .3.8.1 1.5-.3 1.5-.5 0-1.1-.7-1.5-1.5-.3-.8-1.3-1.5-2.3-1.5-1.5 0-1.6-.2-.3-1 .9-.6 1.7-.5 2.2.3.6.9.8.9.8-.1 0-.7-.6-1.5-1.4-1.8-2-.7-1.5-5.5.8-7.8 1.8-1.8 1.8-2 .1-3.2-1.4-1.1-2-1-3.2.2-.8.7-1.9 1.4-2.3 1.4-.5 0-.4 1.2.2 2.6 1 2.1.9 2.7-.3 3.5-1.2.8-1.1 1.1.3 1.9 1.9 1.2 1.4 4-.7 4-.8 0-1.5-1-1.7-2.2-.2-1.2-.9-2.4-1.7-2.6-1-.3-1.2 0-.8 1.1.4 1-.1 2-1.1 2.6-1 .6-1.2 1.1-.4 1.1 1.9 0 1.4 2-.5 2-1.7.1-1.7.2.1 1.5 1 .7 1.5 1.8 1.1 2.4-.3.6.5 1.6 1.9 2.3 1.4.6 2.6 1.6 2.6 2.2 0 .6-.5.5-1.2-.2s-1.9-1.2-2.7-1.2c-.8 0-2.3-.8-3.4-1.8-1.9-1.6-2-1.6-1.5.5.4 1.3.2 2.3-.3 2.3s-.9-.5-.9-1c0-.6-.5-1-1-1-.6 0-.5.8.2 2 .7 1.1 1.9 1.9 2.7 1.7.8-.1 1.6.4 1.9 1.2.3.8 0 1.1-.6.7-1.5-.9-2.2.7-1.1 2.4.8 1.2 1.2 1.2 1.6.2.2-.6.9-1.2 1.5-1.2s.3 1-.8 2.2l-1.9 2.2 2.8-1.7c1.5-1 2.7-1.3 2.7-.8 0 1.8-2.6 2.9-6.2 2.5-2.1-.1-3.8.1-3.8.6 0 .6.6 1 1.4 1 .8 0 1.6.5 1.8 1.2.2.6 2.3 1.2 4.6 1.3 2.3 0 4.4.4 4.8.8.4.4 2 .7 3.6.7 1.5 0 2.8.5 2.8 1.1 0 .7 1.1.8 3.1.4 2.4-.6 3-.4 2.4.5-.5.8-.4 1.1.3.6.6-.3 1.4-.1 1.7.5.4.5 1.3.8 2.1.5.7-.3 1.8.4 2.4 1.5.6 1.1 1.6 1.7 2.2 1.3.7-.4.6-.9-.3-1.5-1.7-1-.5-2.3 1.5-1.6.9.4 1.3 1.5 1.1 2.7-.3 1.3.1 2 1.2 2 1.1 0 1.3-.4.6-1.3-.8-.8-.2-1.9 1.8-3.5 3-2.4 4.1-1.5 1.5 1.1-1.3 1.3-1.2 1.4.9 1.4 2 0 2.3-.4 2.3-3-.1-2-.7-3.1-1.9-3.4-1-.3-1.5-1.1-1.2-1.8.2-.8 1.1-1.1 1.9-.8.8.3 1.4 0 1.4-.6s-.8-1.1-1.8-1.1-2.8-1.1-4-2.4c-2-2.4-2.1-2.5-.2-3.1 1.1-.4 2.3-.4 2.8-.1.4.2.8-.4.8-1.5 0-1-.6-1.9-1.4-1.9-.7 0-1.1.4-.8.9.3.5-.1 1.2-1 1.5-2.2.9-2.3.8-1.6-1.7.5-1.9.4-2-1.1-.9-.9.8-2.1 1.1-2.7.7-1.6-1-1.2 1.1.5 2.5.8.7 1.5 1.9 1.5 2.6 0 1.9-3.4 1.8-5-.1-1-1.2-.9-1.5.4-1.5 1.2 0 1.5-.5.9-1.8-1-2-.9-5 .2-7.5.9-2.1 2.1-2.2 2.9-.1.4 1.2.2 1.5-.9 1-1.6-.6-2.1.9-.6 1.9.5.3 2.1-.6 3.5-2 2.8-2.8 3.2-2.6 1.5.7-.9 1.6-.8 1.9.3 1.6.7-.3 1.8-2 2.5-3.9s1.3-3 1.4-2.4c.1.5.2 1.4.4 2 .1.5.3 1.9.3 2.9.2 1.8.3 1.8 2.1.2 1.5-1.4 1.9-1.4 2.4-.3.5 1.2 2.3 1.5 7.6.9.7-.1 1.1-.8.7-1.7-.3-.8-.9-2.2-1.2-3-.3-.8-.1-1.5.5-1.5s1.1.9 1.1 2 .5 2 1.1 2c.5 0 .7-.5.4-1-.4-.6-.1-1.8.6-2.7 1.1-1.3 1-1.7-.6-2.9-1-.8-2.1-1.1-2.4-.8-.3.3.1.9.9 1.4 1.1.7.8 1-1.4 1-2.4 0-2.7-.2-1.6-1.5 2.1-2.5.4-2.8-3.9-.6-6.8 3.5-9.3 2.4-4.7-2 1.3-1.3 2.2-2.8 2-3.4-.8-2.1 7-1.3 8.8.9 1 1.2 1.7 1.6 1.8.8 0-.6-.4-1.2-.9-1.2s-.8-1.6-.6-3.6c.4-3.8 1.5-5.7 2.2-3.7.5 1.5 3.3.5 3.3-1.2 0-1.8-4.8-2.5-5.4-.8-.3.8-1 1.1-1.6.8-.6-.4-.7-1.2-.4-1.8.5-.8.3-.8-.7 0-1.9 1.8-3.7 1.6-4.8-.6-.9-1.5-.7-1.8.7-1.7.9 0 2 .4 2.3.9.3.4 2 .2 3.9-.4 3.3-1.2 3.3-1.2 1-2.1-1.5-.6-2.6-.5-3 .3-.5.7-1.3.3-2.4-1.2-1.5-2.1-1.5-2.4-.1-2.7.8-.2 1.5-.7 1.5-1.2 0-.4 1-1 2.3-1.4 1.8-.5 2-.8.7-1.6-.9-.6-1-1-.3-1 .6 0 1.5.5 1.8 1.1 1.1 1.8 4-3.3 3.6-6.5-.3-2.8-.2-2.8 3.6-2.2 2.1.4 4.3 1.2 4.8 1.8.7.8.5.9-.5.3-1.2-.7-1.3-.6-.2.6s1.4 1.2 2.1 0c.6-1 1-1 1.6-.2.4.7-.3 2.1-1.6 3.2-1.7 1.5-2.4 1.6-3 .7-.4-.7-1.1-.9-1.4-.6-.9.8 2.6 6.8 3.6 6.2.4-.2.5.5.2 1.6-.3 1-1.3 2.2-2.3 2.5-1 .3-2.1 1.4-2.3 2.3-.4 1.5-.5 1.5-.6-.1-.1-1.2-.7-1.7-1.8-1.5-2.2.4-2.9 2.8-.9 2.8.9 0 1.6.5 1.6 1 0 1.6 8.3.7 9.7-1 .7-.8 1.3-1.1 1.3-.5 0 .5.7-.1 1.6-1.3 1.2-1.7 1.8-1.9 2.8-.9.8.6 1.1 1.8.9 2.4-.6 1.4 2.3 1.8 3.1.5.3-.5-.5-2.1-1.8-3.6-1.7-2.2-2.7-2.7-4.5-2.1-1.3.4-2 1.2-1.7 2 .2.7-.2 1.6-1 1.9-2.1.8-2.1.8-2.8-1-.4-1-.1-1.4.6-1.2.7.3 2-.4 2.9-1.5.8-1.1 2.7-2.1 4-2.2 1.3-.1 2.4-.6 2.4-1.1.1-.5.6-2 1.3-3.4 1.1-2.2 1.1-2.3-.1-.8-.9 1.1-2.2 1.5-3.8 1.2-1.7-.4-2-.3-1.1.4 1.1.7 1 1-.3 1.6-2.5.9-2.8.8-2.2-1.4.3-1.1 0-2.3-.5-2.6-.7-.4-.4-1 .6-1.6.9-.5 1.6-1.7 1.6-2.6.1-1.6.1-1.6 1.1.1.5.9.8 2.1.5 2.6-.3.4.5.7 1.7.6 3-.3 2.9-.2 1.6-2.8-1.1-2-1.1-2.1.4-.9.9.8 2.1 1.1 2.7.7.5-.3 1-.1 1 .5 0 .8.6.8 2 0 2-1.1 1.9-3-.1-3-.6 0-.7.4-.4 1 .8 1.3-.5 1.3-2.5 0-1.2-.7-1.2-1-.1-1 .8 0 1.1-.6.7-1.6-.5-1.3 0-1.2 2.9.5 5 2.9 6.5 2.7 6.5-.8 0-1.6.7-3.4 1.5-4.1 1.2-1 1.3-1.6.3-2.9-.9-1.2-.7-1.1.8.2 1.8 1.5 2.2 1.5 2.7.4.3-.8 0-2-.6-2.6-.8-.8-.8-1.1.2-1.1.8 0 1.1-.7.8-1.9-.7-2.8.9-4.9 2.5-3.3.6.6 2 1.2 3 1.2s1.8.4 1.8 1c0 .5.5 1 1 1 .7 0 .7-.7-.1-2.1-.9-1.8-.8-2.4.5-3.1.9-.5 1.4-1.3 1.1-1.9-.4-.5-.1-.9.4-.9 1.9 0 1.2-1.7-.9-2.3-1.7-.4-2-1.1-1.5-3.6.5-2.9-.1-3.7-2.8-3.2-.5.1-.6-.8-.2-1.9.5-1.4.2-2-.9-2-2.8 0-1.7-1.7 2.2-3.8 3.4-1.8 4-1.8 5.8-.5 1.9 1.5 1.8 1.5-.2.9-1.5-.4-2.4-.2-2.7.9-.4 1 .1 1.7 1.8 2.1 2.8.7 4 3.1 2.5 4.9-.6.7-.7 1.5-.3 1.8 1.1.5 6.1.2 6.9-.5.7-.8 4.4.2 4.4 1.3 0 .4-.5 1.1-1 1.4-1.6 1-.2 2.5 1.6 1.8.9-.3 1.9-.1 2.3.6 1 1.6 4.4.2 3.7-1.5-.3-.8 0-1.1 1-.7 1.3.5 1.2.9-.5 2.7-1.9 2-1.9 2.2-.2 4.3 1.3 1.5 2.6 2 4.2 1.7 1.3-.2 1.8-.2 1.1.2-.6.3-.9 1.1-.6 1.6.4.6.2.8-.3.5-.6-.4-1.6-.1-2.2.7-.8 1-.5 2 1.3 4.1 2 2.3 2.2 3.1 1.3 4.7-.9 1.4-.9 2.1-.1 2.6.6.4 1.5 2.3 1.8 4.2 1.2 6.1 3.9 11.6 5.5 11.3.6-.2 1.1.8 1.1 2.1 0 2.5 1.2 4 2.3 3 .3-.3.1-1.9-.3-3.5-.5-1.7-.5-2.9.1-2.9.5 0 .8-1 .6-2.1-.1-1.2.4-2.4 1.2-2.7.9-.3 1.1 0 .6.7-.7 1.3 2.1 5.1 3.9 5.1.6 0 .5-.5-.2-1.2s-1.2-1.6-1.2-2c0-1.6 5.8 3.4 6.9 5.9 1.1 2.3 1 2.5-.9 2-1.4-.4-1.9-.1-1.6.6.3.7.9 1.9 1.2 2.8.3.9 2.1 2.5 4 3.5s3.4 2.6 3.4 3.6c0 2.6-1 2.2-5.5-2.1-3.8-3.6-4.1-3.7-5.6-2.1s-1.4 2 1.3 4.9c3.2 3.4 4.3 3.9 3.4 1.6-.8-2.1.1-1.9 1.4.4.8 1.7.7 1.9-1.4 1.7-1.4-.2-3 0-3.7.5-1.9 1.2.9 4.1 3.2 3.4 2.1-.7 2.6 1 .7 1.8-1 .4-1 .6-.1.6 1.4.1 3.5-3.3 2.6-4.3-.3-.3.1-.6 1-.6s1.7.5 1.7 1.1c0 1.7 10 10.9 11.8 10.9 1.3 0 1.3.3.4 1.2-1 1-1.5 1-2.1-.1-.9-1.4-1.8-.5-1.7 1.8.1.8 1 1.5 2 1.7 2.2.3 7.2 5.7 5.7 6.2-1.6.5-8.8-3.6-10.5-6-1.8-2.5-2.1-4.2-.7-3.3.5.3 1.3 0 1.7-.7.4-.7.4-1-.1-.6-.4.4-2.2-.4-4-1.8-4-3-5.5-1.7-2 1.6 1.4 1.3 2.5 3 2.5 3.8 0 .8.8 2.1 1.8 2.9 1.6 1.3 1.5 1.4-.4.8-1.6-.4-2.3 0-2.7 1.6-.7 2.8.1 4.2 2 3.5.8-.3 1.2-.2.8.3-1.2 2.1 1.5 5.9 4.9 7.1 5.1 1.6 4.4 4.2-1.1 4.4-2.4.1-3.3 1.8-1.2 2.5.7.2.9-.1.4-.9-.4-.7.5-.4 2.1.6 2.3 1.6 2.5 2 1 2.2-1.3.3-1.5.7-.5 1.8 1.2 1.5.4 1.8-3.5 1.4-1.8-.2-1.8-.1-.3 1.5.9.9 2.2 1.3 2.8.9.8-.5.9-.3.3.7-.5.8-.9 1.6-1 1.9 0 .3-.8 2.1-1.6 3.9-1.4 3.1-1.4 3.7-.1 5.8 1.6 2.4 2.4 2.3 5.8-.7 1.1-1 3-2.1 4.3-2.5 1.2-.3 2.2-1.1 2.2-1.6s1.5-.9 3.3-.9c2.4 0 2.8-.3 1.7-1-1-.6-1.1-1-.3-1 .7 0 2.6-1.5 4.3-3.3 2.9-3.3 8.4-5.7 12.9-5.7 4.3 0 1.8-2.3-3.9-3.4-.3-.1-1.7-1.3-3.2-2.7l-2.8-2.6 2.5.5c2.8.5 3.4-1.5 1.3-3.7-1.1-1-.9-1.1.6-.5 1.2.5 1.7.4 1.3-.3-.8-1.2-5.7-2.4-5.7-1.4 0 .4.5 1.2 1.2 1.9.9.9.8 1.2-.4 1.2-1.8 0-4.4-2.8-3.4-3.7.4-.4 2.2-.7 4.1-.6 3.6.1 4.3-.5 2.5-2.3-.5-.5-1.1-1.9-1.3-3.1-.1-1.1-.9-2.8-1.6-3.7-1.1-1.4-1.1-1.6.3-1.6.9 0 1.6.5 1.6 1.1 0 .5.4.8.9.4.6-.3 1.4.3 2 1.2.8 1.4 1 1.5 1.1.3 0-.8-.9-2.1-2.1-2.8-1.1-.7-1.8-1.9-1.5-2.7.3-.8-.3-1.9-1.2-2.5-1.5-1-1.5-1.1.2-.5 1.1.3 2.3 0 2.7-.6.4-.6 1.2-.8 1.8-.5 1.8 1.1 1.3 2.6-.6 1.9-1-.3-.1 1 2.1 2.9 2.2 2.1 3.6 4.1 3.2 4.7-.4.6-1.3.9-1.9.5-.7-.3 0 .5 1.4 1.8 2.1 1.8 2.5 3 2.2 5.9-.4 3.2-.1 3.8 2.9 5.2 1.8.9 2.6 1.7 1.8 1.7-.9 0-2.6-.7-3.8-1.6-5.1-3.5-4.2-.4 1.5 5.4 6.7 6.8 9.7 8 8.9 3.4-.2-1.5-.5-2.7-.6-2.7-.1 0-.4-2.1-.6-4.8-.4-3.3-.2-4.7.7-4.7.8 0 .7-.5-.3-1.8-.9-.9-1.3-2.3-1.1-3 .3-.7.1-1.8-.4-2.5-.6-.7-.9-2.9-.8-5 .1-2.1-.2-4-.7-4.3-.5-.3-.6-1.4-.3-2.4s.1-2.1-.5-2.5c-.6-.4-.8-1.6-.4-2.7.4-1.5-.1-2.7-2.2-4.4-2.8-2.3-2.9-2.3-.6-2.4 1.7 0 2.2-.5 1.8-1.8-.2-.9-1-5.1-1.6-9.2-.7-4.1-1.6-8-2.1-8.6-.5-.6-.6-1.3-.3-1.7 1-1-1.8-16.1-3.7-19.9-1.1-2.1-1.9-4.5-1.9-5.4 0-2.4-9.1-20.5-10.7-21.1-.7-.3-1.3-1.1-1.3-1.9 0-.7-1.2-2.5-2.7-4-1.5-1.5-3.9-4.4-5.3-6.5-3.8-5.6-15.3-17.9-16.7-17.9-.7 0-1.3-.7-1.3-1.6 0-1-.5-1.4-1.6-1-.8.3-1.2.2-.9-.4.3-.6 0-1-.8-1s-1.7-.7-2.1-1.5c-.3-.8-1.1-1.5-1.8-1.5-.7-.1-2.2-1.5-3.3-3.3-2.3-3.6-8.3-8-10.1-7.3-.6.2-2.2-.6-3.5-2-1.2-1.3-3-2.4-4-2.4s-2.1-.5-2.4-1c-.3-.6-1.9-1-3.5-1-1.5 0-3-.4-3.2-.9-.5-1.4-10.1-2.9-12.4-2zm-28.1 27.5c-.4 1-.8 1-1.8.1-.9-.9-1-1.6-.2-2.5 1.2-1.6 2.8.3 2 2.4zm-4.3.5c0 .6-.4.7-1 .4-.5-.3-1-1.1-1-1.6 0-.6.5-.7 1-.4.6.3 1 1.1 1 1.6zM277 62c0 .6-.7 1-1.5 1s-1.2.6-.9 1.4c.3.8.1 1.7-.5 2.1-.6.3-1.1-.1-1.1-1 0-1.1-.5-1.5-1.5-1.1-1.3.5-2.2-1.4-1.1-2.5.9-.9 6.6-.8 6.6.1zm17.3 3.5c-.3.9-.8 1.4-1 1.1-.3-.3-.2-.9.2-1.5.9-1.6 1.5-1.3.8.4zm-5.8 1.5c.3.5-.1 1-.9 1-.9 0-1.6-.5-1.6-1 0-.6.4-1 .9-1 .6 0 1.3.4 1.6 1zm11.5-.2c0 .5-.7.9-1.5.9s-1.2-.4-.9-.9c.3-.4.9-.8 1.5-.8.5 0 .9.4.9.8zm-20 1.1c0 .5-.7 1.1-1.4 1.4-1 .4-1.3.1-.9-.9.6-1.5 2.3-1.9 2.3-.5zm-4 2.2c0 .5-.4.9-.8.9-.5 0-.9-.7-.9-1.5s.4-1.2.9-.9c.4.3.8.9.8 1.5zm-9.2 6.8c.3.8 0 1.1-.6.7-.6-.3-1.3.3-1.7 1.4-.5 1.6-1 1.8-2.5 1-2.7-1.4-1.5-4.6 1.7-4.5 1.5 0 2.8.6 3.1 1.4zm6.2-.9c1.2.8 1.1 1-.5 1-1.2 0-2.6.5-3.2 1.1-.9.9-1 .7-.6-1 .6-2.3 1.9-2.6 4.3-1.1zm7 1.4c0 .2-.7.7-1.6 1-.8.3-1.2.2-.9-.4.6-1 2.5-1.4 2.5-.6zm39 2.6c0 .5-.7 1-1.6 1-.8 0-1.2-.5-.9-1 .3-.6 1-1 1.6-1 .5 0 .9.4.9 1zm-63.6.9c.3.5-.3 1.1-1.5 1.4-1.6.4-1.8.3-.8-.9 1.3-1.6 1.6-1.7 2.3-.5zm25.1 2.9c-.3.3-1.1 0-1.8-.7-.9-1-.8-1.1.6-.5 1 .3 1.5.9 1.2 1.2zm-29.7 2c.4 1.4 0 1.5-2.2.6-.9-.3-1.6-1-1.6-1.4 0-1.2 3.3-.5 3.8.8zm4.6 2.1c-.2.2-1 .1-1.9-.3-1.3-.5-1.4-.8-.3-2 1.1-1.2 1.4-1.2 1.9.3.4.9.5 1.8.3 2zm73.9.5c-2.1 2.8-2.4 2.8-1.6-.2.3-1.2 1.2-2.2 2-2.2 1.1 0 1 .5-.4 2.4zm11.2-.5c.2.4 0 1.3-.4 1.9-.9 1.4-4.5.4-4.8-1.4-.2-1.2 4.4-1.6 5.2-.5zm-68 5.9c-.3.3-1.1 0-1.8-.7-.9-1-.8-1.1.6-.5 1 .3 1.5.9 1.2 1.2zm42.5 3.1c0 .5-.6 1.4-1.4 2.1-.8.6-1.2 1.8-.9 2.6.3.8-.1 1.4-1.1 1.4s-1.6.9-1.6 2.5-.6 2.5-1.6 2.5c-1.3 0-1.4-.3-.4-1.5.6-.8 1-2 .8-2.7-.3-.7.3-2 1.2-2.8.9-.8 1.9-2.3 2.3-3.3.7-1.7 2.7-2.4 2.7-.8zm-39.5 1.8c1.1 2.8 1.4 7.3.4 7.9-.5.3-.9-1.3-.9-3.5 0-2.3-.4-4.1-1-4.1-.5 0-1-.5-1-1 0-1.6 1.7-1.1 2.5.7zm42.9 1.1c.3.5-.1.9-.9.9s-1.2-.4-.9-.9c.3-.4.7-.8.9-.8.2 0 .6.4.9.8zm-61.7 1.9c-.4.3-.2 1.2.4 2 .9 1 .7 1.3-.7 1.4-1.1 0-2.7.2-3.6.4-2 .4-2.2-.3-.8-2.5.6-1 1-1.1 1-.3 0 .7.5 1.3 1 1.3.6 0 1-.7 1-1.5s.5-1.5 1.2-1.5c.6 0 .8.3.5.7zm28.3 3c0 1.3-1.5 3.3-2.6 3.3-.8 0-1.4-.2-1.4-.4s-.2-1-.5-1.8c-.4-.9.3-1.3 2-1.3 1.4 0 2.5.1 2.5.2zm-26.3 7.5c-.8.5-.6 1.3.6 2.6 2.1 2.3 2.2 3.2.2 3.2-.8 0-1.4-.6-1.2-1.3.1-.7-.9-1.2-2.5-1.3-2.4-.1-2.7.2-2.2 2.1.6 2.5-1.9 3-4.9 1-1.5-1.1-1.6-1.3-.3-1.8.9-.4 1.5-.1 1.3.5-.1.6.3 1.2 1 1.5 1.4.5.5-3.8-1.1-5-.7-.6-.5-.7.6-.4 1 .4 1.8-.1 2.1-1.5.3-1.1 1-1.8 1.4-1.5.5.3 1.5.2 2.2-.3.8-.5 1.9-.3 2.6.3.9.9 1 1.4.2 1.9zm45.3.8c0 .5-.4 1-1 1-.5 0-1-.5-1-1 0-.6.5-1 1-1 .6 0 1 .4 1 1zm-42 1c0 .5-.2 1-.4 1-.3 0-.8-.5-1.1-1-.3-.6-.1-1 .4-1 .6 0 1.1.4 1.1 1zm43.3 3.6c-.8 2.2-3.2 1.7-2.6-.5.3-1.1 1.1-1.7 1.8-1.4.8.2 1.1 1.1.8 1.9zm55.7-.4c0 .6-.6.5-1.5-.2-.8-.7-1.5-1.4-1.5-1.6 0-.2.7-.1 1.5.2.8.4 1.5 1.1 1.5 1.6zm-97 .9c0 .5-.4.9-1 .9-.5 0-1-.7-1-1.6 0-.8.5-1.2 1-.9.6.3 1 1 1 1.6zm17.8-.1c1.1 0 .6.8-1.5 2.1-2.6 1.6-3.6 1.8-5.3.9-1.1-.6-1.8-1.5-1.5-2 .3-.4-.1-1.1-.7-1.4-.7-.3.1-.4 1.7-.2 1.7.2 2.9.8 2.8 1.4-.2.6.4.9 1.1.6.8-.3 1.4-1.1 1.2-1.7-.1-.7-.1-.9.1-.5.3.5 1.2.8 2.1.8zm-20.8 3c.9 1.6.8 2-.5 2-.8 0-1.5-.9-1.5-2s.2-2 .5-2c.2 0 .9.9 1.5 2zm33.5-.2c-.3.3-1.1 0-1.8-.7-.9-1-.8-1.1.6-.5 1 .3 1.5.9 1.2 1.2zm68.2.5c1.1-.4 1.4-.2 1.1.8-.6 1.9-6.5 3-7.8 1.4-.8-.9-.8-1.5 0-2 .5-.3 1-.1 1 .4 0 2 1.9 1.1 2.6-1.2.6-1.8.9-1.9 1.2-.5.2 1.1.9 1.5 1.9 1.1zm-77.2-.2c-.6.9-4.5.8-4.5-.2 0-.4 1.1-.7 2.5-.7 1.3 0 2.2.4 2 .9zm-28.1 1.6c.3.7-.3 1.7-1.2 2.2-1.4.9-1.2 1.1 1.3 1.1 2.6.1 2.7.3 1 1-1.5.6-2.6.2-4.3-1.6-1.7-1.8-2.9-2.2-5.1-1.8-1.6.4-3.2.1-3.5-.5-.5-.7-.1-.9.8-.5.9.3 1.6.1 1.6-.5 0-1.5 8.8-1 9.4.6zm9 .5c-.3.5-1.2.4-2-.3-1.9-1.6-1.8-1.8.6-1.2 1.1.3 1.7.9 1.4 1.5zm87.1-.2c.3.5.2 1-.4 1-.5 0-1.3-.5-1.6-1-.3-.6-.2-1 .4-1 .5 0 1.3.4 1.6 1zm12.5 4.5l2.4 2.6-2.4-.9c-1.4-.5-2.6-1.7-2.8-2.6-.5-2.2 0-2 2.8.9zm-100 .5c0 .5-.4 1-1 1-.5 0-1-.5-1-1 0-.6.5-1 1-1 .6 0 1 .4 1 1zm-4 1c0 .5-.4 1-1 1-.5 0-1-.5-1-1 0-.6.5-1 1-1 .6 0 1 .4 1 1zm-6.3 2.5c0 .6-.6 1.2-1.4 1.2-.7 0-1.3-.6-1.3-1.2s.6-1.2 1.3-1.2c.8 0 1.4.6 1.4 1.2zm-14.3 4.7c-.4.6-1 .5-1.5-.3-1.4-2.2-1-3.3.6-1.9.8.7 1.2 1.7.9 2.2zm12.6 0c0 .5-.4.6-1 .3-.5-.3-1-.2-1 .2 0 .5-.9.9-2 1-1.9.2-1.9.1-.2-2.2 1.2-1.7 2-2 3-1.3.6.6 1.2 1.5 1.2 2zm-5 5.8c1.8 1.2.2 1.2-2.5 0-1.3-.6-1.5-.9-.5-.9.8 0 2.2.4 3 .9zm4 0c0 .5-.5 1-1.1 1-.5 0-.7-.5-.4-1 .3-.6.8-1 1.1-1 .2 0 .4.4.4 1zm-6 3.4c0 .3-.4.8-1 1.1-.5.3-1 .1-1-.4 0-.6.5-1.1 1-1.1.6 0 1 .2 1 .4zm8 .5c0 .6-.4 1.3-1 1.6-.5.3-1-.1-1-.9 0-.9.5-1.6 1-1.6.6 0 1 .4 1 .9zm10.7 2.1c-.1 1.1-.6 2-1.3 2-.9 0-1.2-3.1-.5-4.8.4-1.1 1.9 1.2 1.8 2.8zm117.5 5.2c.3.8 0 2.2-.7 3.1-1.2 1.7-1.5 1.6-5.1-.9-2.7-1.8-3.2-2.5-1.7-2.1 2 .4 2.2.1 1.9-2.4-.2-1.5-.1-3.1.2-3.4.6-.6 4.7 3.6 5.4 5.7zM249.5 149c.4.6-.5 1-1.9 1s-2.6-.5-2.6-1c0-.6.9-1 1.9-1 1.1 0 2.3.4 2.6 1zm167.5 1c0 .5-.2 1-.4 1-.3 0-.8-.5-1.1-1-.3-.6-.1-1 .4-1 .6 0 1.1.4 1.1 1zm-170.5 2c.3.5.1 1-.4 1-.6 0-1.1-.5-1.1-1 0-.6.2-1 .4-1 .3 0 .8.4 1.1 1zm7.9 1c-2.2.9-2.9.6-2-.9.4-.6 1.4-.7 2.3-.4 1.5.6 1.4.7-.3 1.3zm133.6 1c0 .5-.2 1-.4 1-.3 0-.8-.5-1.1-1-.3-.6-.1-1 .4-1 .6 0 1.1.4 1.1 1zm7 6.5c0 .9-5-2.2-5.5-3.3-.3-.7.8-.4 2.5.8 1.7 1.2 3 2.3 3 2.5zm10.5-1.4c1.1 1.7-.1 2.1-1.5.4-.8-.9-.8-1.5-.2-1.5.6 0 1.4.5 1.7 1.1zM223 162.6c0 .8-.4 1.2-1 .9-.5-.3-1-1-1-1.6 0-.5.5-.9 1-.9.6 0 1 .7 1 1.6zm7 .8c0 1-3 0-3.4-1.1-.4-1.1-.1-1.1 1.4-.3 1.1.6 2 1.2 2 1.4zm10.2.7c-1.7.6-2.2 1.4-1.7 2.8.4 1.2 0 2.1-1.1 2.5-2.3.9-3 0-1.4-1.9.7-.9 1-1.8.6-2.2-.3-.3-.6 0-.6.7 0 1.1-.3 1.1-1.2.2-1.7-1.7.2-2.9 4.5-3 2.9 0 3 .1.9.9zm-6.5 4.6c-.4.3-.2 1.2.4 2 .9.9.8 1.3 0 1.3-.6 0-1.1-.2-1.1-.4s-.3-1.1-.6-2c-.4-1-.1-1.6.7-1.6.7 0 .9.3.6.7zM396 181.1c0 .4-.7.6-1.5.3-.8-.4-1.5-1-1.5-1.5 0-.4.7-.6 1.5-.3.8.4 1.5 1 1.5 1.5zm-155.3 1.5c-.3.3-1.2.4-1.9.1-.8-.3-.5-.6.6-.6 1.1-.1 1.7.2 1.3.5zm10 0c-.3.3-1.2.4-1.9.1-.8-.3-.5-.6.6-.6 1.1-.1 1.7.2 1.3.5z"/><path d="M254.6 111.7c-1.1 1.1-.7 2 .9 2 .8 0 1.5-.4 1.5-.8 0-1.1-1.6-2-2.4-1.2zM380 153.9c0 .5.5 1.3 1 1.6.6.3 1 .2 1-.4 0-.5-.4-1.3-1-1.6-.5-.3-1-.2-1 .4zM309.6 29.9c-.4.7-.5 1.5-.2 1.8.9.9 1.9-.4 1.4-1.8-.4-1.1-.6-1.1-1.2 0zM288.5 47c-.3.5-.1 1 .4 1 .6 0 1.1-.5 1.1-1 0-.6-.2-1-.4-1-.3 0-.8.4-1.1 1zM273.6 54.2c.3.4 1.1.8 1.9.8.8 0 1.6-.4 1.9-.8.2-.4-.6-.8-1.9-.8-1.3 0-2.1.4-1.9.8zM257 61c0 .5-.7 1-1.5 1-1.9 0-1.9 3.9 0 6.4 1.6 2.1 2.1 1 .6-1.3-1-1.6-.4-4.1 1-4.1.5 0 .9.7.9 1.5s.5 1.5 1 1.5c1.1 0 1.2-.6.4-3.8-.6-2.2-2.4-3.1-2.4-1.2zM250.4 68.1c.3 1.3.3 1.8 0 1.1-.3-.6-1-1.2-1.5-1.2-.6 0-.6.7 0 1.9.6 1 .7 2.2.3 2.6-.4.4.3.2 1.6-.4 2.5-1.3 2.7-5.1.3-5.9-.9-.3-1.1.2-.7 1.9zM243.3 71.5c0 1 .6 1.4 1.4 1 .8-.3 2-.5 2.6-.6.7 0 .3-.4-.8-.9-2.9-1.2-3.2-1.2-3.2.5zM211 80.9c0 .8-.7 1.1-2 .8-2.3-.6-3.5.7-2.3 2.7.6 1 1.5 1.1 4.1.2 3.1-1.1 3.2-1.3 1.8-3.1-1-1.3-1.5-1.5-1.6-.6zM319 88c0 .5.5 1 1.1 1 .5 0 .7-.5.4-1-.3-.6-.8-1-1.1-1-.2 0-.4.4-.4 1zM242 95.5c.7.9 1.5 1.3 1.7 1.1.7-.7-.7-2.6-1.9-2.6-.6 0-.6.6.2 1.5zM320.5 96c.4.6 1.1.8 1.6.5 1.4-.9 1.1-1.5-.7-1.5-.8 0-1.2.5-.9 1zM330 102.4c0 2.6 1.3 3.5 2.5 1.6.3-.6-.1-1.7-.9-2.6-1.5-1.4-1.6-1.3-1.6 1zM322 104.5c0 1.9 2.4 2.9 4.7 2.1 1.4-.6 1.4-.8-.3-2.1-2.5-1.9-4.4-1.9-4.4 0zM331.8 110.7c.7.3 1.6.2 1.9-.1.4-.3-.2-.6-1.3-.5-1.1 0-1.4.3-.6.6zM315.5 113c2.7 1.2 4.3 1.2 2.5 0-.8-.5-2.2-.9-3-.9-1 0-.8.3.5.9zM307 119c0 .5.7.7 1.5.4.8-.4 1.5-.8 1.5-1 0-.2-.7-.4-1.5-.4s-1.5.4-1.5 1zM232.1 124.4c-1 1.1-.9 1.4.1 1.2 1.4-.2 2.3-1.5 1.5-2.2-.2-.2-1 .2-1.6 1zM309 125.5c0 .8.4 1.5 1 1.5.5 0 .7-.7.4-1.5-.4-.8-.8-1.5-1-1.5-.2 0-.4.7-.4 1.5zM303.4 126.4c-1 1-.3 1.7 3.2 3.4 3.3 1.6 4.2 1.8 3.7.7-.3-.9-1.6-1.8-2.9-2.1-2.6-.7-3.1-1.9-1.1-2.7.8-.4.7-.6-.3-.6-.8 0-2 .6-2.6 1.3zM266.2 133.8c-.7.2-1.2.8-1.2 1.4 0 .5.9.6 2 .3 2.1-.7 2.8 1 .8 1.8-.7.3-.3.6 1 .6 1.3.1 2.1-.3 1.8-.8-.4-.5-.2-1.1.4-1.3.5-.1-.1-.8-1.3-1.4-1.3-.6-2.8-.9-3.5-.6zM359.7 134.7c.3 1 1 2.3 1.5 3 .5.7.4 1.3-.3 1.5-.9.3-.9.9-.1 2.5 1.4 2.5 4.7 4.1 3.8 1.8-.3-.8-.1-1.5.5-1.5s.4-.6-.4-1.4c-.8-.8-2-2.8-2.7-4.5-1.3-3.2-3.4-4.4-2.3-1.4zM229 135.7c0 .6-.3 2-.7 3-.7 1.7-.6 1.7 1.1 0 1.4-1.4 1.6-2.1.7-3-.8-.8-1.1-.8-1.1 0zM274.6 136.3c.3 1 .9 1.5 1.2 1.2.3-.3 0-1.1-.7-1.8-1-.9-1.1-.8-.5.6zM263 137c0 .5.5 1 1.1 1 .5 0 .7-.5.4-1-.3-.6-.8-1-1.1-1-.2 0-.4.4-.4 1zM355.5 142.9c-.8 1.3.2 3.1 1.7 3.1.6 0 1.7.8 2.4 1.7 1.1 1.5 1.1 1.2 0-1.7-1.5-3.6-3-4.8-4.1-3.1zM276 146c0 .5.5 1 1.1 1 .5 0 .7-.5.4-1-.3-.6-.8-1-1.1-1-.2 0-.4.4-.4 1zM280 145.9c0 .5.5 1.3 1 1.6.6.3 1 .2 1-.4 0-.5-.4-1.3-1-1.6-.5-.3-1-.2-1 .4zM286.8 146.7c.7.3 1.6.2 1.9-.1.4-.3-.2-.6-1.3-.5-1.1 0-1.4.3-.6.6zM234 148c0 .5.5 1 1 1 .6 0 1-.5 1-1 0-.6-.4-1-1-1-.5 0-1 .4-1 1zM270.6 148.5c-1 .7-1.5 1.8-1.2 2.4 1 1.6 6.6 4.1 6.6 2.9 0-.5-.9-1.2-2-1.5-2.7-.7-2.5-3.3.3-3.3 1.8 0 1.9.2.7 1-.8.5-1 1-.5 1 .6 0 1.7-.4 2.5-1 1.1-.7.9-1.1-1.3-1.9-3.4-1.3-2.8-1.3-5.1.4zM215 151c0 .5.5 1 1 1 .6 0 1-.5 1-1 0-.6-.4-1-1-1-.5 0-1 .4-1 1zM222 151c-.8.5-1.2 1.1-.9 1.4.2.3 1.1.1 1.9-.4.8-.5 1.2-1.1.9-1.4-.2-.3-1.1-.1-1.9.4zM232.2 151.5c-1.1 1.3-1 1.5.6 1.5 1.1 0 2.5.7 3.2 1.5 1.4 1.7 4 2 4 .5 0-.6-.7-1-1.5-1s-2-.9-2.7-2c-1.5-2.4-1.9-2.4-3.6-.5zM364.2 183c2.1 2.9 4.8 4.3 3.1 1.7-.4-.6-.8-1.6-.8-2.1s-1-1.2-2.3-1.7l-2.2-.8 2.2 2.9zM212.2 184c-.8 1.3-.8 2-.2 2 .6 0 1.3-.7 1.7-1.5.9-2.4-.1-2.7-1.5-.5zM348.5 189.8c.2 2.5 0 4-.6 3.7-1.6-1.1-.9 1.2 1.2 3.6 1.9 2.3 2 2.3 1 .2-1.4-2.9-1.4-3.3.4-3.3 1.9 0 1.9.1-.4-4.6l-2-3.9.4 4.3zM359.8 188.2c-.5 4.6-.4 6.7.5 6.1.5-.3.6.3.3 1.5-.4 1.2-.2 2.3.5 2.8.9.5 1 .2.6-.9-1-2.7.2-2 5.5 3.3 3.6 3.6 5.8 5 7.7 4.9 1.4 0 2-.3 1.4-.6-.7-.2-1.3-1-1.3-1.7 0-.8-.9-2.5-2.1-4-1.7-2.1-2.4-2.4-3.5-1.5-1.1.9-1.4.9-1.4 0 0-.7-.4-1-.9-.7-.5.3-1.6-.5-2.5-1.9-.9-1.4-1.4-2.5-1.1-2.5.3 0-.1-1.4-1-3-1.7-3.2-2.4-3.7-2.7-1.8zM413 188.4c0 1 .8 1.6 2.2 1.6 1.2 0 1.9-.1 1.7-.3-.2-.1-1.2-.9-2.1-1.6-1.5-1.2-1.8-1.1-1.8.3zM233.5 189c-.3.5.1 1 1 1s1.3-.5 1-1c-.3-.6-.8-1-1-1-.2 0-.7.4-1 1zM373.4 189.5c1 .8 2.4 1.1 2.9.8.6-.4.2-1-.9-1.4-3.1-1.2-4-.9-2 .6zM377 192c0 .5.5 1 1.1 1 .5 0 .7-.5.4-1-.3-.6-.8-1-1.1-1-.2 0-.4.4-.4 1zM370.3 193.5c0 .9.4 1.4.9 1.3.5-.2 1-.8 1-1.3s-.5-1.1-1-1.3c-.5-.1-.9.4-.9 1.3zM353 193.6c0 1 2.8 3.4 4.1 3.4.8 0 .5-.7-.6-2-1.7-1.9-3.5-2.6-3.5-1.4zM230.7 198.7c-1.2 1.1-.8 3 .7 3 .8 0 1.1-.8.8-1.9-.5-2-.6-2.1-1.5-1.1zM346 198.8c0 1.2 1.9 2.6 2.6 1.9.2-.2-.2-1-1.1-1.7-.9-.8-1.5-.8-1.5-.2zM236.5 201c.3.5.8 1 1.1 1 .2 0 .4-.5.4-1 0-.6-.5-1-1.1-1-.5 0-.7.4-.4 1zM363 200.8c0 1.2 1.9 2.6 2.6 1.9.2-.2-.2-1-1.1-1.7-.9-.8-1.5-.8-1.5-.2zM250 204c.6 1.1 1.5 2 1.9 2 .5 0 .7-.9.4-2-.3-1.1-1.2-2-2-2-1.1 0-1.1.4-.3 2zM413 203l-2.5.6 3 1.5c2.2 1 3.2 2.5 4 5.4.5 2.2 1.5 4.3 2.2 4.8.7.4 1 1.4.7 2.2-.4.8-.2 1.5.3 1.5s.9.9 1 2c.1 1.1-.2 1.8-.8 1.5-1.9-1.2-2.1 2.8-.5 8.3 3.9 13.4 4.9 25.9 2 27.5-.9.5-1.2 1.6-.8 3.2.4 1.6 0 3-1 4-.9.9-1.6 2.3-1.6 3.2 0 .8-.6 1.3-1.2 1.1-.9-.3-1.3-2.9-1.4-7.9-.2-12.1-3-30.9-4.6-30.9-.4 0-.8-.7-.8-1.5s-.4-1.5-.8-1.5c-.5 0-1.5-1.2-2.3-2.8-.8-1.5-2.2-3.6-3.1-4.6-1-1.1-2.4-3.2-3-4.8-1.6-3.4-2.6-3.2-5.5 1.2-3.2 4.7-3.1 11.3.2 15.6 1.9 2.4 2.4 4 1.9 5.9-.8 3.3-1.6 3.2-3.7-.5-1-1.7-2.2-3-2.6-3-1.4 0-2.3 6.8-1.6 12.5.7 5.4-.5 7.9-2.8 5.6-2.2-2.2-2.4-1-1.1 6.1 1.9 10 1.8 11.9-1.1 15.8-3.1 4.2-3.3 9.7-.5 12.8 2.4 2.6 2.5 3.1.4 2.8-.9-.1-2.8.9-4.2 2.2-3.2 3.3-5.2 16.4-3.2 21.2 1.3 3.2 2.1 3.6 9.5 4.6 4.5.5 4.8.5 3.1-.8-1.6-1.3-1.7-1.7-.5-3.9 1.4-2.4 1.5-2.9 1.8-5.9.1-1.3.2-1.3 1.1 0 .9 1.3 1.2 1.3 2.4-.3.7-.9 1.8-1.7 2.4-1.7.6 0 1.3-.6 1.6-1.3.5-.9.7-.9 1.2.1.4.8 1 .9 1.7.4s2.4-1.2 4-1.6c1.5-.3 2.7-1.2 2.7-1.9s2.7-3.7 5.9-6.6c4.6-4.1 6.5-6.8 8.6-12 1.6-3.6 3.4-8 4.1-9.6 1.7-3.8 3.3-11.2 2.6-11.9-.2-.3 0-1.2.6-1.9 1.6-1.9 2.5-34.6 1-36.4-.6-.7-.8-1.3-.5-1.3 1 0-2.4-9.6-4.8-13.1-2.7-4.1-9.3-7-13.5-5.9zm-10.2 79.9c1.4.8 1.5 13.7.2 17.5-.6 1.7-.9 1.6-2.1-1.2-.8-1.8-2-3.2-2.7-3.2-.7 0-1.1-.4-.7-.9.8-1.4-1.4-2.4-2.8-1.3-.9.8-1.7.3-3-1.9-1.6-2.9-1.6-3 .3-2.4 1.5.5 2 .2 2-1.3 0-2 2.3-4.6 3.2-3.7.3.3 1.1-.1 1.8-1 1.4-1.7 2-1.8 3.8-.6zM232 203.9c0 .5.5 1.3 1 1.6.6.3 1 .2 1-.4 0-.5-.4-1.3-1-1.6-.5-.3-1-.2-1 .4z"/><path d="M238.8 203.6c-.4.3-.4 1.3-.1 2.1.4.9 0 1.4-.8 1.3-.8-.1-3.2-.2-5.4 0-3.2.1-3.6.3-2 1 1.8.7 1.6.9-1.3 1.6-1.9.4-3.6 1.3-3.9 2.1-.5 1.1-1 1-2.7-.5-3.1-2.8-4.2-3.3-6.2-2.5-1.6.6-1.6.7.2 1.5 1.1.4-1.5.7-6.3.5-6.4-.1-8.3-.5-8.3-1.6 0-1.2-.3-1.1-1.7.1-1 .9-3.6 2.3-5.7 3.2-3.2 1.3-4.1 1.4-4.8.4-.4-.7-.8-.8-.8-.3 0 .6-1.5 1.7-3.2 2.4-4.2 1.7-4.5 1.8-6.5 2-1.3.1-1.4.4-.5 1.3 1.6 1.6 1.5 3.8-.2 3.8-2.1 0-2.7 2.8-.8 3.9 1.5.9 1.3 1-.8 1.1-1.4 0-3.2.9-4 2.1-.8 1.2-2.3 2.4-3.3 2.8-1.6.6-1.6.8.3 2.8 1.1 1.2 2 2.7 2 3.3 0 .5.5 1 1.1 1 .7 0 .9 1 .5 2.6-.4 1.5-.2 3.2.5 4 .9 1.1.8 1.5-.3 1.9-1.1.5-1.5 2-1.3 6.1.1 2.9-.2 5.4-.7 5.4-.8 0-1.2-2.7-.8-6.9.1-1.4-.2-2.1-.9-1.7-.6.4-1.1 1.8-1.1 3.2 0 1.3-.5 2.4-1.1 2.4-.6 0-.8.9-.3 2.2.7 2.5 2.4 3.9 3.6 3.2.4-.3.8-.1.8.4 0 1.6-4.6 3.2-5.9 1.9-.8-.8-1.1-.7-1.1.4 0 2.3 1.1 3 2.7 1.8 1-.9 1.3-.8 1.3.4 0 .8-.5 1.7-1.2 1.9-.7.3-.9 1.2-.5 2.2.6 1.5 1.5 1.7 4.5 1.3 3.4-.6 3.6-.5 1.7.9-1.1.8-2.5 1.2-3.2 1-.6-.3-1.3-.1-1.5.4-.2.5-1.6 1-3.3 1.2-1.6.2-3.3.7-3.7 1.3-.5.6-1.1.6-1.6-.2-1.3-2-3.5.2-2.7 2.7l.7 2.3-2.3-2.1c-2.5-2.4-3.9-2.1-1.9.3.7.9 1 1.8.7 2.2-.3.3 0 1.8.8 3.4 1.9 3.5 1.9 3.9 0 3.9-.8 0-1.5-.9-1.5-1.9 0-1-.7-2.1-1.5-2.5-.8-.3-1.5-.1-1.5.4 0 .6.5 1 1.1 1 .6 0 .9.6.7 1.2-.3.7.2 1.9.9 2.7 1.2 1.1 1.1 1.7-.7 3.7-1.2 1.2-1.9 2.7-1.5 3.3.3.6.1 1.1-.4 1.1-.6 0-1.1.5-1.1 1.1 0 .5.4.7 1 .4.6-.3.7.1.4.9-.3.9-.9 1.6-1.3 1.6-1.1 0-.8 6.9.4 7.4.7.2 1-.6.7-2.4-.4-2.8 0-2.9 5.1-2.1.4 0 .7.9.5 1.8-.2 1.2.5 1.9 2.1 2.1 1.9.3 2.2 0 1.7-1.3-.3-.9-.6-1.9-.6-2.1 0-.3-.4-.2-1 .1-.5.3-1 .1-1-.4 0-.6.7-1.1 1.5-1.1s1.5-.5 1.5-1c0-.6-.9-1-1.9-1-1 0-2.1-.6-2.4-1.4-.6-1.6 4.8-1.2 6.9.5.8.6 1.4.8 1.4.4s.7-.2 1.5.5c1.4 1.2 1.4 1.5-.1 3.1-.9 1-1.3 2.3-.9 2.9.4.7.2 1.6-.5 2-.7.4-1 1.3-.6 1.9.5.7 1.5.5 3.4-.6 2.3-1.5 2.5-1.5 1.4-.1-1.2 1.4-.9 1.4 3.2 0 2.5-.9 4.3-1.9 4-2.1-.5-.5 12.2-4 14.9-4.1.9 0 1.7.6 1.7 1.3 0 .7.9 1.9 2 2.7 2.8 2 2 4.4-3.7 10.6-1.7 1.8-3.3 2.4-6.5 2.4-11.2 0-25.8 4.3-27.9 8.1-1.2 2.3 0 2.4 2.7.4 1-.8 2.6-1.4 3.4-1.4 1 0 1.1.2.3.6-.7.2-1.3 1.5-1.3 2.7 0 1.3-.3 2.6-.7 2.9-1.3 1.3-1.5 12.9-.3 15.8 1.1 2.5 1.8 2.9 4.9 2.9 3.9 0 9.2-3.2 7.2-4.4-.6-.4-1.1-1.2-1.1-1.8 0-.7.7-.5 1.8.4.9.8 2.4 1.4 3.2 1.3 1.3-.1 3.9 2.9 4 4.6 0 .3-1.8 1.1-3.9 1.8-2.1.6-4.1 1.7-4.4 2.5-.6 1.6-.3 5.3.8 7.8.4 1.1 0 1.8-1.4 2.3-1.2.3-2.1 1.2-2.1 1.9 0 1.6 6.1 3.5 9.3 2.9 1.4-.3 3 .2 3.9 1.1 1.4 1.3 1.7 1.3 2.2.1.3-.9 1.2-1.2 2.2-.8 1.1.4 1.5 1.4 1.1 3.7-.2 1.7 0 4.6.6 6.6.6 1.9.9 4.3.8 5.2-.1 1 .2 1.8.7 1.8 1.8 0 2.3 3.3.7 5-.8.9-1.6 3.5-1.7 5.8-.1 2.3-.5 3.9-1 3.5-.6-.3-.8-3.2-.6-6.4.1-3.2-.1-5.9-.6-5.9-1-.1-2.9 4.8-4 10.1-.5 2.8-.4 3.1 1.4 2.6 1.1-.3 2-.1 2 .4s-.6.9-1.2.9c-2.4 0-3.7 1.5-4.3 4.9-.4 2.1-.2 3 .5 2.6 1.7-1.1 1.1.1-1.5 2.9-1.4 1.5-2.3 3.2-2 3.7.8 1.2 4.6-1.4 6.2-4.3 1.1-2.2 1.2-2.1 1.1 1.3-.1 2 .3 4.2.7 4.9.5.7.4 1.1-.1.8-.5-.3-1.9.5-3.2 1.8-2.2 2.3-2.2 2.4-.2 2.4 1.1 0 2-.5 2-1.1 0-.7 1.2 0 2.6 1.5 1.5 1.4 3.2 2.6 3.8 2.6.6 0 1.9 1.2 3 2.6 1.8 2.6 1.8 2.6-.2 2-1.9-.6-2-.3-1.7 7.1.2 4.3-.1 8.3-.6 8.9-.6.7-.4 1.6.6 2.4 1.3 1.1 1.5.8 1.5-1.4 0-1.4.5-2.6 1.1-2.6 1.4 0 .4 4.6-1.9 8-.8 1.4-1.6 3.5-1.7 4.7 0 1.9.3 2.1 2.3 1.6 2.1-.5 2.3-.3 1.8 1.5-.4 1.1-.2 2.3.4 2.7 1.5.9 1.2 2.5-.4 1.9-2-.8-4.2 3.4-2.6 5 .8.8 1 .7.5-.7-.7-1.8.2-2.1 3-1.1 1.5.6 1.4.8-.1 2.5-.9 1-2.1 1.6-2.5 1.3-.5-.3-.9 1.9-.8 4.8 0 3.5.3 4.6.8 3.4 1.1-2.7 2.3-.4 1.5 2.8-.4 1.7-1.1 2.3-2.2 2-1.3-.4-1.3-.2.2 1 2 1.6 2 1.6 0 1.7-1.7 0-1.6.1.4.9 1.3.6 2.2 1.8 2.2 3.1 0 1.5.5 1.9 1.5 1.5 1.3-.5 2.1 1.4 1.3 2.8-.2.2.9 1.5 2.3 2.8 2 1.9 4.6 2.7 11.5 3.7 4.9.6 10.6 1.4 12.7 1.7 4.4.7 4.6.2 1.2-3.2-1.4-1.4-2.5-2.9-2.5-3.4 0-.6-.7-1-1.6-1-.9 0-1.4-.6-1.1-1.3.3-.7-.8-2.2-2.4-3.3-1.6-1-2.9-2.2-2.9-2.6 0-.4-.6-1.3-1.3-2-.7-.7-2.6-3.1-4.2-5.3-1.7-2.2-3.6-4.5-4.3-5.1-.8-.5-1.5-2.2-1.5-3.6-.2-2.1-.5-2.4-1.9-1.7-2.4 1.3-2.5 1.2-3.1-1.7-.3-1.7.2-3.1 1.3-4.2 1-.9 2.3-3.3 2.8-5.2.9-3.2 1-3.3 1.1-.8.1 4.1 2.1 4.4 4.9.8 1.9-2.4 2.7-2.8 3.3-1.8 1.5 2.3 1 4.5-1.2 5.1-1.3.3-1.8 1-1.4 1.7.4.7-.2 1.8-1.5 2.7-1.2.8-1.8 1.9-1.3 2.4 1 1 5.3 0 5.3-1.3 0-.5.5-.6 1-.3.6.3 1 .1 1-.4 0-.6.5-1.1 1.1-1.1.6 0 .9.7.6 1.5-.4.8-.2 1.7.3 2 .6.4 1 1.7 1 2.9 0 1.8.7 2.5 3 3 1.7.3 2.9 1.1 2.8 1.8-.3 1.4 1.6 1.5 4.6.2 1.5-.6 1.7-.4 1.1.6-.6 1-.4 1.2.7.7 1.1-.4 1.8.1 2.2 1.5.4 1.8.7 1.9 2 .9 1.3-1.1 2.4-1 6.3.3 2.5.9 5.6 1.6 6.7 1.6 1.2 0 3.3.6 4.8 1.4 2.3 1.2 2.9 1.2 4.7-.1 1.9-1.3 2.2-1.2 2.7.2.5 1.2 1 1.3 2 .5.9-.8 1.9-.8 3.4 0 1.2.7 3.3 1 4.7.7 1.5-.3 2.7.1 3 .9.4 1.1.8 1.1 2-.1 1.7-1.7 3.3-2 3.3-.4 0 .5.5.7 1.1.3.8-.4.7-.9-.2-1.5-.9-.5.9-1.8 5.5-4 5.4-2.6 6.8-3.7 7.3-6 .5-2.8 2.4-3.8 7.8-4.4 4.4-.4 4.5-.4 4.5-1.7 0-1.6 4.9-5.8 6.7-5.8.8 0 2.1.6 2.8 1.4 1.2 1.2 1.2 1.6 0 2.6-.8.7-2.1 1-3 .6-1.5-.5-8.4 3.2-8.5 4.6 0 .8 8.5.2 10-.7.5-.3 1.8.3 3 1.5 2.1 2.1 4 2.6 4 1 0-.6-.4-.9-.9-.8-.5.2-1.1-.1-1.2-.5-.2-.5 2.1-2 5.1-3.5 3-1.5 5.6-3.4 5.8-4.2.2-.9 0-1.1-.5-.5-1.5 1.9-11 5.7-12.9 5.2-1.4-.3-1.1-.6 1.4-1.2 1.8-.4 3.5-1.2 3.9-1.8.3-.5.2-.7-.3-.4-.6.3-1.6.2-2.4-.3-1.1-.7-.6-1.3 2.2-2.5 2.1-.8 4.5-1.5 5.5-1.5s2.5-.5 3.3-1c1-.6-.2-.8-3.7-.4-4.8.5-5.2.4-4.6-1.3.3-1 1-2.3 1.5-2.9.4-.6.6-1.8.2-2.7-.4-1.1.4-2.1 2.5-3.2 4.2-2.1 5.5-1.1 4.7 3.6-.5 3-.3 3.9.8 3.9.8 0 1.6-.7 2-1.5.3-.8 1.3-1.5 2.1-1.5 1 0 1.3.5.9 1.2s.2.4 1.4-.6c2.5-2.2 2.9-4.1.7-3.2-1.8.7-2-.5-.3-2.2.7-.7.8-1.2.3-1.2s.4-1.4 2-3c2.2-2.2 2.5-3 1.3-3-1.8 0-1.9-3.4-.3-5.9.6-1.1 1.1-1 2.2.4 1.7 2.4 2.6 1.4 5.1-5 1.1-2.7 2.4-5.1 3.1-5.3.6-.2.9.3.5 1.2-.9 2.2.9 2 3.1-.4 1.7-1.8 1.7-2 .2-1.4-1.3.5-1.7 0-1.7-1.9 0-1.4-.5-2.9-1.1-3.2-.6-.4-.8-1.3-.5-2.1.3-.8.1-1.4-.4-1.4-.6 0-1.3-.1-1.7-.3-.4-.1-1 1-1.4 2.5-.6 2.4-.5 2.7 1.1 1.8.9-.5 2-.6 2.4-.3 1.3 1.3.5 3-2.1 4.3-3.5 1.7-7.3 2.2-7.3.9 0-.5 1-.9 2.1-.9 1.7 0 1.9-.3 1-1.4-.9-1.1-.9-1.9.1-3.5 1.5-2.4 1.6-2.3-5-4.3-5.3-1.6-5.3-1.6-6.1.5-.6 1.6-.5 2.3.5 2.5.8.2 1.4 1 1.4 1.8 0 1.7 1.2 1.8 2.9.1 1-1 1.1-.9.7.3-.2.8-.7 2.8-1 4.3-.4 1.5-1.1 2.5-1.6 2.2-.6-.4-.8-1.1-.5-1.6.4-.5.1-.9-.5-.9s-1.5 1.1-2.2 2.4c-.6 1.4-1.7 2.7-2.4 3-1 .4-1-.4.2-3.6 1.1-3.3 1.2-4.3.2-5-1.9-1.2-3.8-1-3.8.5 0 .7-1.3 1.8-2.9 2.4-2.6.9-3 .8-3.5-1.1-.5-2.1-.5-2.1-2-.1-1.4 1.9-1.5 1.9-2.1.2-.4-.9-.4-2.4-.1-3.2.5-1.4.9-1.4 3.3-.1 2.1 1 3.1 1.1 3.9.2.6-.6 2.2-2 3.5-3 1.7-1.4 1.9-2.1 1-2.4-.7-.2-1.7.1-2.1.7-.4.8-1.6 0-3.4-2.3-1.5-2-2.2-3.6-1.7-3.6.6 0 1.1-.9 1.1-2s.5-2 1-2c.6 0 1 .9 1 2 0 1.3.5 1.8 1.5 1.4.8-.4 1.2-1.1.8-1.7-.4-.6 0-.8 1-.4 1.3.5 1.7 0 1.8-2.1.1-1.7.3-2 .6-.9.7 2.6 1.7 2.1 3.1-1.5.8-2.1.9-3.4.2-3.6-1.4-.5-1.3-2.3.2-2 1.2.3 1.3-7.4.1-9.7-.3-.5.4.1 1.5 1.4 1.8 2.2 1.9 2.2 2.6.5.5-1.3.1-2.3-1.3-3.3-1.2-.7-2.1-2-2.1-2.7 0-1.7-1.6-1.8-2.6-.3-.3.6-.1 1.5.6 1.9.7.4.9 1.3.5 2-.4.6-.7 3-.7 5.1.1 2.2-.3 3.7-.9 3.4-.5-.4-.9-2.3-.9-4.3s-.5-4.4-1-5.2c-.6-1-1-1.1-1-.3 0 .7-.7 1.3-1.5 1.3-1.4 0-2.1-2.2-1.5-4.5.2-.6.4-1.9.5-3.1.1-1.1.4-2.5.8-3.1.4-.6-.4-2.4-1.8-4-1.3-1.5-2.5-2.4-2.6-1.8-.1.5-.3 2.8-.4 5-.2 2.2-.4 4.5-.4 5.1-.1.7-.8 1.5-1.7 1.8-1.7.7-1.7-.4.2-4.9.8-2 .8-2-1.2-.1-1 1.1-2.9 3.3-4.2 5l-2.2 3 .7-4.9c.6-4.6.5-4.9-1-3.6-.9.7-1.4 1.7-1.1 2.2.3.5.1.9-.4.9s-1.3 1.7-1.8 3.7-1.5 3.9-2.3 4.1c-1 .3-1.2-.2-.7-2.1.7-3.1-.1-5.7-2-5.7-.9 0-1.4-1.1-1.4-3 0-2.1-.5-3-1.6-3-.9 0-1.4-.7-1.2-1.7.6-3.2 2.6-2.4 3.3 1.4.7 3.2.9 3.5 1.4 1.5.3-1.2 1.9-2.9 3.5-3.7 2.6-1.4 3.2-1.4 6.3.5 3.8 2.2 5.3 2.5 5.3 1 0-.6-.6-1-1.4-1-.8 0-1.7-.7-2-1.6-.8-2.2-.8-2.4.8-2.4 1.5 0 3.2-3.7 2.2-4.7-.3-.3.3-1.8 1.4-3.3 2.5-3.4 2.7-5.9.5-4-.8.7-1.5 1.9-1.5 2.6 0 .8-.5 1.4-1.1 1.4-.5 0-.9 1-.7 2.2.2 1.4-.2 2.3-1 2.3-.7 0-1.7.7-2.2 1.5-.8 1.2-1 1.2-1.5-.2-.9-2.2.3-4.1 2-3.4 1.6.6 2.7-3.1 1.3-4-.6-.4-1.9.3-2.8 1.6-1 1.3-2.2 2-2.9 1.6-.7-.5-1.1.3-1.1 2.1 0 1.5-.9 3.9-1.9 5.3-1.6 2-2.1 2.2-3.5 1.1-.9-.7-1.6-2.3-1.6-3.5 0-1.1-.7-3-1.5-4-2.1-2.8-2-6.8.2-6.4 1 .2 1.8 1 1.9 1.8.4 7 3.7 10.6 4.8 5.2.4-1.5 2-3.6 3.6-4.7 2.8-1.9 4.7-5.5 2.9-5.5-.5 0-.9.5-.9 1.1 0 1.1-2.4 3.9-3.4 3.9-.5 0-.4-.9.9-4.5.8-2.3 1.4-6.7 1.5-10.7 0-1.5.4-2.9 1-3.3.5-.3 1-.1 1 .5s.4.9.9.6c.4-.3.6-1.7.4-3l-.5-2.5-1.9 2.2c-2.1 2.5-2.3 1.7-1-3 .7-2.5.6-3.3-.6-3.7-2.8-1.1-3.5-.6-2.9 1.8.4 1.5.1 2.6-.7 2.9-.9.3-.7.9.6 2.4 2.5 2.8 2.1 3.6-1.3 2.8-3.6-.8-4 .2-.5 1.5 1.8.7 2.5 1.7 2.5 3.5 0 2.8-1.2 3.2-3 1-.7-.8-1.6-1.2-2.1-.9-.5.3-1.3-.5-1.8-1.8-.8-1.8-1-1.9-1-.5-.1 1-.6 1.5-1.1 1.2-.7-.4-.7-1.2 0-2.5 1.4-2.7 1.2-4.2-1.1-7-1.3-1.6-1.9-1.9-1.5-.8.3 1-.1 2.4-.9 3.2-1.3 1.3-1.3 1.7.1 3 .8.9 1.1 1.6.5 1.6-.6 0-1.1.5-1.1 1.1 0 .6-.7 1.7-1.5 2.5-1.2 1.3-1.5 1.2-2.6-.7-.9-1.7-.8-2.3.2-3 .7-.4 1.6-.6 2-.4.3.3.6-.9.5-2.5-.1-3.4-.1-3.4-2.7-2-1.5.9-2.1.7-2.6-.6-.5-1.5-.8-1.4-1.5.7-.6 1.6-.5 2.7.4 3.4.7.5 1.4 2.3 1.6 4 .2 1.6.8 3.3 1.3 3.6 1.5.9.6 7.2-1 7.7-1 .3-1.2 0-.8-1.1.3-.9.1-1.9-.5-2.3-.6-.4-.8-2.3-.5-4.4.5-3.7-.2-6-1.9-6.3-.9-.2-1-.6-1.3-3.3 0-.7-1-1.4-2-1.7-1.4-.3-2.1.2-2.5 1.6-.5 2-1.9 1.7-2.2-.4-.1-.5-.2-1.3-.3-1.9 0-.5-.4-.9-.8-.9-1.9.3-3.3-.2-3.3-1.2 0-.7 1.2-.8 3.3-.4 2.8.6 3 .5 1.7-.8-1.9-1.9-6.5-3.4-5.5-1.8.4.7.2 1.8-.5 2.5-.8 1.1-.5 1.8 1.3 3.2 1.3 1.1 3.1 3.4 4 5.2 1.4 3 1.5 3.6.2 4.8-.8.8-1.2 2.1-.9 2.8.3.8.1 1.7-.5 2.1-.6.3-1.1.1-1.1-.5 0-1.1-2.4-2.2-7.2-3.4-2.3-.5-2.6-.4-2.1 1.1.6 1.6.5 1.6-1 .4-2-1.6-2.3-.1-.7 2.9.6 1.2.6 2.7.1 4.2-.9 2.2-1 2.2-1 .2-.1-1.2-.8-2.7-1.7-3.5-1.3-1.1-1.4-.9-.8 1.7.4 1.6 1.4 3.7 2.3 4.7 1.5 1.7 1.4 1.8-1.1 1.2-2.3-.6-2.7-.4-2.5 1.4.1 1.2.5 2.1.9 2.1s.2 1.1-.4 2.5c-.6 1.4-1.9 2.5-2.7 2.4-2.9-.3-3.4.1-2.2 1.5.6.8 1.1 1.8 1 2.2-.1.5.1 1.7.6 2.7 1.2 2.8 0 2.9-2.9.2-1.5-1.4-3.1-2.5-3.6-2.5-1.4 0-2.3-4.1-1.1-5.3 1.6-1.6 1.3-4.8-.6-6.9-1.4-1.5-1.5-2.1-.4-2.7 1-.6 1-1 .1-1.6-.6-.4-.9-1.3-.6-2.1.3-.8.1-1.4-.4-1.4s-.7-.7-.4-1.5c.4-.8.1-1.5-.4-1.5-.6 0-1.4-1.6-1.8-3.5-.3-1.9-1.1-3.5-1.6-3.5s-.7-.8-.3-1.9c.4-1.2 0-2.1-1.1-2.5-1.3-.5-1.4-.9-.4-2.1.7-.9 1-1.8.6-2.2-.3-.3-.6 0-.6.8-.1 1.6-2.3-1.8-2.6-4-.2-.8-1-1.8-1.8-2.3-.9-.5-1.6-1.7-1.6-2.8 0-1-.7-2.5-1.5-3.4-.8-.8-1.5-1.9-1.5-2.5 0-.6-.4-1.1-1-1.1-.5 0-1-.7-1-1.5s-.5-1.5-1.2-1.5c-.6 0-.8-.3-.5-.6.4-.4-.6-2.3-2.1-4.3s-3.3-4.6-3.9-5.9c-.7-1.2-1.9-3.2-2.5-4.4-.7-1.3-1.9-2.8-2.7-3.4-.8-.6-1.1-1.6-.7-2.2.4-.7.1-1.2-.7-1.2-1.6 0-5.1-3.7-6-6.3-.4-.9-1.6-1.7-2.8-1.7-1.7 0-2-.4-1.5-2.3.3-1.2.6-2.5.6-3 0-.4 1.1-.7 2.5-.7 1.5 0 2.8-.7 3.2-1.8.4-.9 1.5-2.5 2.6-3.4 1.1-1 1.6-2.2 1.1-2.9-.5-.9.1-1 2.4-.6 2.1.4 3.2.2 3.6-.8.3-.8 1.3-1.5 2.1-1.5.9 0 1.3-.5 1-1-.4-.6-.2-1.7.5-2.5.9-1 .7-1.5-.9-2-2-.6-2-.7.3-3.2 2-2.2 3.4-2.6 9.7-2.9 4.1-.2 8.5-.6 9.7-.9 1.3-.3 3-.1 3.8.6 1.1.9 1.4.8 1.4-.5 0-1.4.9-1.6 4.5-1.4 2.5.2 4.5.6 4.5.9 0 .3 1.3.6 3 .6 3.1 0 11 3.2 11 4.5 0 .5.7.8 1.6.8 2.6 0 .6-1.7-4.9-4.3-6.8-3.2-9.6-5.4-8-6.4.6-.5 4.5-.8 8.7-.8 7.9 0 9.2-.7 8.7-4.9-.2-1.5.2-1.8 2.3-1.4 1.9.4 2.6.1 2.6-1.1 0-1 .3-1.2.8-.5.4.6 2.6 1.5 4.9 1.8 2.2.4 4.9 1.4 6 2.1 2.1 1.7 3.7 1.9 2.8.5-.4-.6-2.5-2-4.8-3.2-2.3-1.1-5.3-3.3-6.7-4.8-1.4-1.5-3.2-3-3.9-3.2-.9-.2.7-1.4 3.5-2.7 9.8-4.5 9.9-4.6 8-4.9-1-.2-3 .1-4.4.7-2.8 1-14.6 2.5-12.4 1.5 1.8-.8 1.5-3.5-.3-2.8-.8.4-1.5.1-1.5-.5 0-.7.7-1.4 1.5-1.7.8-.4 1.5-1 1.5-1.5s-1.8 0-4 1.1c-3.9 2-5.4 5-2.5 5 .8 0 1.5.4 1.5 1 0 1.2-4.2 1.3-5.5.2-.6-.5-5.9-1.9-12-3.2-6-1.3-11.7-2.9-12.6-3.7-.9-.7-2.4-1.1-3.3-.7-.9.3-1.6.2-1.6-.4 0-.6-1.6-.9-3.7-.7-2 .1-4.9-.1-6.5-.6-1.5-.4-2.8-.4-2.8 0 0 .9-7.6-.2-13.2-2-2.1-.7-3.8-1.7-3.8-2.3.1-2.3 3-4.9 5.4-4.9 1.4 0 2.4-.3 2.1-.7-.3-.4.4-1 1.5-1.3 1.1-.3 2.3-.1 2.6.4.3.5 1.4-.1 2.4-1.3l1.9-2.3.1 2.2c0 1.4.6 2.3 1.5 2.3.8 0 1.5-.4 1.5-.9 0-1.4 8.1-1 8.7.5.3.8.9 1.1 1.4.8.5-.3.7-.9.4-1.4-.3-.4.2-1 1-1.3.9-.4 1.2-.1.9.7-.9 2.4 1.5 2.8 3.8.7 2.4-2.3 3.4-2.6 4.3-1.1 1 1.7 2.5 1.1 2.5-1 0-1.2-.7-2-1.6-2-1.6 0-4.3-2.7-4.4-4.3 0-.4.9-.7 2-.7 1.3 0 1.8.5 1.4 1.5-.4.9 0 1.5 1 1.5 2 0 1.7-2.1-.7-3.8-.9-.7-1.5-1.7-1.2-2.2 1-1.6-2.5-4.1-4.4-3-1.1.6-2.1.6-2.8-.1-.5-.5-1.2-.7-1.5-.3zm7.2 3.4c0 .5-.4 1-1 1-.5 0-1-.5-1-1 0-.6.5-1 1-1 .6 0 1 .4 1 1zm0 7.6c0 .8-.4 1.2-1 .9-.5-.3-1-1-1-1.6 0-.5.5-.9 1-.9.6 0 1 .7 1 1.6zM219.5 234c-.3.5-1 1-1.6 1-.5 0-.9-.5-.9-1 0-.6.7-1 1.6-1 .8 0 1.2.4.9 1zm16.5 7c0 .5-.7 1-1.6 1-.8 0-1.2-.5-.9-1 .3-.6 1-1 1.6-1 .5 0 .9.4.9 1zm-4 1.5c0 .8-.4 1.5-1 1.5-.5 0-.7-.7-.4-1.5.4-.8.8-1.5 1-1.5.2 0 .4.7.4 1.5zm25.6 3c-.3.9.1 1.8 1 2.2 1.3.5 1.1 1-1.1 3.1-1.5 1.3-2.5 3.2-2.2 4.1.3 1.3-.5 1.6-3.7 1.8-2.3.1-6.3 1-9.1 2.1-4.7 1.8-7.1 1.9-22.2 1.3-1.2-.1-3.8-1.5-5.7-3.2-2.8-2.4-3.3-3.3-2.3-4.4.8-.9 1.9-1 3.6-.4 1.4.6 3.6.6 5.5 0 5.1-1.5 13.6-2.3 13.6-1.2 0 .6-1.5 1.5-3.2 2l-3.3.9 3.4.1c2.5.1 3.2.5 2.7 1.6-.7 1.9-1.1 1.9 7-.6 6.7-2.1 15.3-6.9 12.4-6.9-.9 0-2.5.7-3.7 1.5-1.4 1-4.1 1.4-8.2 1.2-6.6-.2-7.9-1.1-3-2.1 1.7-.3 2.8-1 2.4-1.6-.3-.5.1-1 1-1s1.3.4 1 1c-.4.6.6 1 2.4 1 1.6 0 3.3-.5 3.6-1 .3-.6 1.9-1 3.5-1s3.2-.5 3.5-1c1-1.6 1.8-1.2 1.1.5zm-24.7 1.6c-.8.4-3.1 1.1-5.3 1.5-2.1.3-5.2 1.2-6.9 1.9-2.4 1-3.5 1-5.8-.2-4.8-2.4-3.3-3.3 5.4-3.4 4.5 0 9.1-.4 10.2-.8 2.4-1 4.3-.2 2.4 1zM178 273.8c0 .4-1 1.6-2.1 2.6-2.1 1.7-2.2 1.7-3.8 0-1.5-1.7-1.5-1.7.2-.5 1.4 1.2 1.7 1.1 1.7-.3 0-1 .5-1.4 1-1.1.6.3 1 .1 1-.4 0-.6.5-1.1 1-1.1.6 0 1 .3 1 .8zm-15 11.5c1.1.5.9.6-.4.4-1.1-.1-2.1-.9-2.3-1.7-.3-1-.2-1.1.4-.4.4.6 1.5 1.4 2.3 1.7zm16.8-.1c.4.1 2-.2 3.6-.7 1.6-.4 3.1-.4 3.5.2.3.5 1.5 1.5 2.6 2.2 1.9 1.1 1.8 1.2-.5.7-1.4-.2-3.5-.8-4.7-1.1-1.5-.5-2.3-.3-2.3.4 0 .6 1.1 1.1 2.4 1.1 1.4 0 2.8.4 3.1 1 .3.5.2 1-.4 1-.6 0-.8.7-.4 1.6.4 1.2 0 1.4-2.3.8-1.6-.3-3.5-1.3-4.1-2.2-1.4-1.7-2.3-1.3-2.7 1.5-.2 1-2.2 2.8-4.5 4.1-3.3 1.7-4.2 1.9-3.7.7.3-.9 0-1.5-.8-1.5-.9 0-1.2.8-.8 2.5.3 1.6 0 2.5-.9 2.5-.7 0-.9-.3-.6-.7.4-.3.2-1.1-.3-1.8-.7-.8-.3-1.8 1-3.3 2.7-2.8 2.5-4.2-.4-4.2-1.4 0-2.7-.4-3.1-.9-.7-1.2 3.4-4.1 5.7-4.1 1 0 1.8-.4 1.8-.9s1.7-.5 4 0 4.4 1 4.8 1.1zM283 353.1c0 .5-.4.9-1 .9-.5 0-1-.7-1-1.6 0-.8.5-1.2 1-.9.6.3 1 1 1 1.6zm19 1.3c0 .3-.4.8-1 1.1-.5.3-1 .1-1-.4 0-.6.5-1.1 1-1.1.6 0 1 .2 1 .4zm-121 3.4c0 .4-.9.8-2 .9-1.1.1-2-.2-2-.5 0-.4.9-.8 2-.9 1.1-.1 2 .2 2 .5zm88.1 2.9c1.3 1.6 1.2 1.7-.3.4-1.7-1.3-2.2-2.1-1.4-2.1.2 0 1 .8 1.7 1.7zm18.6 9.5c-.3.8-.6.5-.6-.6-.1-1.1.2-1.7.5-1.3.3.3.4 1.2.1 1.9zM192.4 381c-.1.8-.3 1.9-.3 2.5-.1.5-.6.3-1.1-.5-1.2-1.8-1.3-7.3-.2-8.4.8-.8 2 4 1.6 6.4zm69.4-1.5c-.2 2.6-1.2 3.2-2.3 1.5-.3-.6-.1-1 .4-1 .6 0 1.1-.7 1.1-1.5s.2-1.5.5-1.5.4 1.1.3 2.5zm23.2.9c0 .3-.4.8-1 1.1-.5.3-1 .1-1-.4 0-.6.5-1.1 1-1.1.6 0 1 .2 1 .4zm-76.9 3.3c1.6 1 2.9 2.1 2.9 2.6 0 .7-3.7-1.4-6.9-4-1.4-1 1.6 0 4 1.4zm-6.3.1c.9.5 3 1.5 4.6 2.3 3.2 1.5 5.1 4.7 2.2 3.6-1.1-.4-1.6-.1-1.7 1.1-.1 1.5-.2 1.5-.6-.1-.3-1.3-1.1-1.7-2.4-1.4-1 .3-1.7.2-1.4-.2.2-.5-.5-1.7-1.5-2.9-2.9-3.1-2.6-4 .8-2.4zm-4.8.6c0 .3-.4.8-1 1.1-.5.3-1 .1-1-.4 0-.6.5-1.1 1-1.1.6 0 1 .2 1 .4zm-1 4.6c0 .5.6.7 1.4.4 1.2-.5 1.3 0 .4 3-1.3 4.1-2.3 4.6-3.2 1.3-.9-3.3-.7-5.7.4-5.7.6 0 1 .4 1 1zm126.6 4.3c-1.2 4.1-1.2 4.7.1 4.7.8 0 1.1.5.8 1-.4.7-1.3.6-2.6-.1-1.5-.7-1.8-1.6-1.3-3.2.3-1.2.7-2.6.8-3.1.1-1.2 2.9-4.7 3.3-4.2.2.1-.3 2.4-1.1 4.9zm-27.4-2.1c-.7.7-1.2.8-1.2.2 0-1.4 1.2-2.6 1.9-1.9.2.3-.1 1.1-.7 1.7zm22.3 1.8c.3.5.1 1-.4 1-.6 0-1.1-.5-1.1-1 0-.6.2-1 .4-1 .3 0 .8.4 1.1 1zm-4.5 4.4c0 .3-.4.8-1 1.1-.5.3-1 .1-1-.4 0-.6.5-1.1 1-1.1.6 0 1 .2 1 .4zm-11 1.5c0 .6-.4 1.3-1 1.6-.5.3-1-.1-1-.9 0-.9.5-1.6 1-1.6.6 0 1 .4 1 .9zm7.3-.2c-.7.2-1.3 1.4-1.3 2.6-.1 2.5-1.9 5.1-3.8 5.5-.8.1-1.1-.1-.9-.5.2-.5 1.2-2.5 2.2-4.6 1-2.1 2.4-3.7 3.4-3.6 1 0 1.1.2.4.6zm-9.8 3.3c.3.5.1 1-.4 1-.6 0-1.1-.5-1.1-1 0-.6.2-1 .4-1 .3 0 .8.4 1.1 1zm17.1 3.5c-.9.9-1.6 2.2-1.6 2.8 0 .8-.3.7-.9-.2-.5-.7-1.4-1-2-.7-1.8 1.1-1.3-.4 1.2-3.4 1.8-2.3 2.4-2.6 3.6-1.5 1.2 1.2 1.1 1.6-.3 3zm9.1 6.7c-.3.7-.5.2-.5-1.2s.2-1.9.5-1.3c.2.7.2 1.9 0 2.5zM188 414.3c0 1.8-.2 1.9-1 .7-1.3-2-1.3-4.3 0-3.5.6.3 1 1.6 1 2.8zm2.8 7c-.7 1.4-1.3 1.7-1.6.9-.6-1.9.6-4.4 1.8-3.7.7.4.6 1.4-.2 2.8zm120.2.9c0 1.8-.2 2-.9.8-.6-.8-.7-1.8-.5-2.2.9-1.4 1.4-.9 1.4 1.4zm8 2.2c0 .3-.4.8-1 1.1-.5.3-1 .1-1-.4 0-.6.5-1.1 1-1.1.6 0 1 .2 1 .4zm-16.7 7.3c-.4 2.4-.3 3.4.5 3 .6-.5.8 0 .5 1.3-.3 1.2-1.4 2-2.5 2-1.5 0-1.8-.4-1.3-1.8 1.5-3.7 1.7-5.3.7-6.5-.8-1-.6-1.3.8-1.4 1.6-.1 1.8.3 1.3 3.4zm12.4-1.3c-.3.8.1 1.7.9 2 2 .8.7 5.6-2 7.6-2.1 1.5-9.6 2.1-9.6.7 0-.4.7-.7 1.5-.7.9 0 2-1.2 2.5-2.6 1.2-3.1 3.4-2.1 2.6 1.2-.8 2.9 1 3.2 1.9.4.3-1.1 1.1-2 1.6-2s.9-.5.9-1.1c0-.6-.7-.9-1.5-.5-1.2.4-1.4 0-1.1-1.9.5-2.7 1.4-4.5 2.3-4.5.3 0 .3.6 0 1.4zm6.3 7.6c0 .5-.4 1-1 1-.5 0-1 .7-1 1.5s-.4 1.5-1 1.5c-1.4 0-1.3-2.3.2-3.8s2.8-1.6 2.8-.2zm-31.8 2.5c-.5 2.8-2.2 4.4-2.2 2.1 0-2.1 1.1-4.6 2-4.6.4 0 .5 1.1.2 2.5zm38.1 1.7c-.2 2.4-.4 5.1-.4 6.2 0 1-.3 1.6-.6 1.2-.3-.3-1.3 0-2.1.7-1.3.9-1.4.9-.8-.1.4-.7.1-1.2-.9-1.2-1.4 0-1.2-.6.9-3.1 1.4-1.7 2.6-4.1 2.6-5.5 0-1.3.4-2.4.9-2.4.4 0 .6 1.9.4 4.2zm-27.1-1c-.7.7-1.2.8-1.2.2 0-1.4 1.2-2.6 1.9-1.9.2.3-.1 1.1-.7 1.7zm-.9 2.9l2.2 2-2.7-.3c-3.2-.5-4.2-1.3-3.3-2.7.9-1.5 1.3-1.4 3.8 1zm-99.5 1.8c0 1.6-.6 3.5-1.4 4.2-1.1.9-1.4.7-1.4-1.4 0-5.4 2.6-8 2.8-2.8zm5.5.6c-2.2 2.9-2.6 2.6-1.1-.7.7-1.5 1.6-2.4 2-2.2.5.3 0 1.6-.9 2.9zm88.1.5c-.6.5-2.4-2.1-2.4-3.4 0-.6.6-.1 1.4 1 .8 1 1.2 2.1 1 2.4zm-5 2.5c.8 5.1.2 6.7-2.1 5.8-1.4-.6-1.4-.8.3-2 1.8-1.3 1.8-1.4-.3-1.9-3.1-.8-2.4-6.3.8-6.4.4 0 1 2 1.3 4.5zm25.1.6c-.4.5 0 .9.7.9.8.1.5.6-.7 1.6-1.8 1.3-2 1.3-2.6-.3-.7-2 .8-4.6 2.2-3.7.5.3.7 1 .4 1.5zm4.5-.1c0 .5-.4 1-1 1-.5 0-1-.5-1-1 0-.6.5-1 1-1 .6 0 1 .4 1 1zm-48 2.4c0 .3-.4.8-1 1.1-.5.3-1 .1-1-.4 0-.6.5-1.1 1-1.1.6 0 1 .2 1 .4zm14 .2c0 .8-1.9 1.3-2.4.6-.3-.5.1-.9.9-.9s1.5.2 1.5.3zm25 3c0 .8-.5 1.2-1 .9-.6-.4-.8-1.1-.5-1.6.9-1.4 1.5-1.1 1.5.7zm15.8-.9c-1 .2-1.8.9-1.8 1.4 0 .5-.4.9-1 .9-.5 0-.7-.7-.4-1.5.4-.8 1.6-1.4 2.8-1.4 1.6.1 1.7.2.4.6zm-48.1 2.8c-.4.8-1.1 1.5-1.7 1.5-.6 0-.6-.7.2-2 1.4-2.2 2.4-1.9 1.5.5zm5.6.5c-.3 1.2-.8 1.9-1.1 1.6-.5-.6.5-3.6 1.2-3.6.2 0 .2.9-.1 2zm52.7-1c0 .5-.4 1-1 1-.5 0-1-.5-1-1 0-.6.5-1 1-1 .6 0 1 .4 1 1zm-25 2c0 .5-.4 1-1 1-.5 0-1-.5-1-1 0-.6.5-1 1-1 .6 0 1 .4 1 1zm-111 2.1c0 .5-.4.9-1 .9-.5 0-1-.7-1-1.6 0-.8.5-1.2 1-.9.6.3 1 1 1 1.6zm103 0c0 .6-.4.7-1 .4-.5-.3-1-1.1-1-1.6 0-.6.5-.7 1-.4.6.3 1 1.1 1 1.6zm32-1.7c0 .3-.4.8-1 1.1-.5.3-1 .1-1-.4 0-.6.5-1.1 1-1.1.6 0 1 .2 1 .4zm-35.9 2.9c-1 .9-1.1.8-.5-.6.3-1 .9-1.5 1.2-1.2.3.3 0 1.1-.7 1.8zM280 465c0 .5-.5 1-1.1 1-.5 0-.7-.5-.4-1 .3-.6.8-1 1.1-1 .2 0 .4.4.4 1zm-62 1.4c0 .3-.4.8-1 1.1-.5.3-1 .1-1-.4 0-.6.5-1.1 1-1.1.6 0 1 .2 1 .4zm6.8.3c-1 .2-2.8.2-4 0-1.3-.2-.5-.4 1.7-.4 2.2-.1 3.2.1 2.3.4zm54.5 11.1c-.3 1.2-1 2.2-1.5 2.2s-.7-.3-.5-.8c.2-.4.7-1.6 1.1-2.6.9-2.5 1.7-1.6.9 1.2zm-51.8 1.2c-.3.5-1.1 1-1.6 1-.6 0-.7-.5-.4-1 .3-.6 1.1-1 1.6-1 .6 0 .7.4.4 1zm53.5 8.5c-.7.8-1.7 1.5-2.2 1.5-.6 0-.5-.7.2-1.5s1.7-1.5 2.2-1.5c.6 0 .5.7-.2 1.5zm-5.3 2.2c-1.5 1.6-1.7 1.6-1.7.1 0-.9.6-1.8 1.3-2.1 2-.7 2.2.2.4 2z"/><path d="M176 287.6c0 .8.5 1.2 1 .9.6-.3 1-1 1-1.6 0-.5-.4-.9-1-.9-.5 0-1 .7-1 1.6zM172 291c-1.3.8-1.3 1 .2 1 .9 0 2-.5 2.3-1 .8-1.3-.5-1.3-2.5 0zM255.5 204c.4.6 1.1.8 1.6.5 1.4-.9 1.1-1.5-.7-1.5-.8 0-1.2.5-.9 1zM360 205.8c0 1.1 3.3 4.2 4.5 4.2.4 0 .2-.7-.5-1.5-.6-.8-.9-1.9-.5-2.5.3-.6-.3-1-1.4-1-1.2 0-2.1.4-2.1.8zM223.6 209.5c.4.8 1 1.2 1.5.9 1.4-.8 1-2.4-.6-2.4-.9 0-1.2.6-.9 1.5zM348.6 208.7c-1.1 1.1-.6 2.3.9 2.3.8 0 1.5-.4 1.5-.9 0-1.3-1.6-2.2-2.4-1.4zM345.1 211.6c0 1.1.3 1.4.6.6.3-.7.2-1.6-.1-1.9-.3-.4-.6.2-.5 1.3zM349 213.5c0 .8.4 1.5 1 1.5.5 0 .7-.7.4-1.5-.4-.8-.8-1.5-1-1.5-.2 0-.4.7-.4 1.5zM342 216.9c0 .5.5 1.3 1 1.6.6.3 1 .2 1-.4 0-.5-.4-1.3-1-1.6-.5-.3-1-.2-1 .4zM232.6 220.6c-1.1.8-1.6 1.4-1 1.4 1.3 0 3.9-1.8 3.4-2.4-.3-.2-1.4.2-2.4 1zM347.5 222c-.3.5-.1 1 .4 1 .6 0 1.1-.5 1.1-1 0-.6-.2-1-.4-1-.3 0-.8.4-1.1 1zM345 231.6c0 .8.5 1.2 1 .9.6-.3 1-1 1-1.6 0-.5-.4-.9-1-.9-.5 0-1 .7-1 1.6zM123 236.3c0 .5-.5.7-1.1.5-1.5-.5-15.2 6.4-15.7 7.9-.2.7.3 1.3 1.2 1.3.8 0 2 .8 2.5 1.7.6 1 1.1 1.2 1.1.5 0-2.5 4.5-1.2 6.4 1.9 1.3 2.1 2.3 2.8 3.4 2.4 1-.4 2.1-.7 2.7-.8.5-.1 1.6-.9 2.3-1.7 1.2-1.3 1.3-1.3.8.4-.5 1.6-.3 1.7 2.1 1.1 1.6-.4 4.8-.8 7.3-.9l4.5-.1.3-4.5c.4-7.1-2-9.3-10.7-10-3.9-.3-7.1-.1-7.1.3zm10 10.8c0 1.4-1.7 1-2.3-.5-.4-1-.1-1.3.9-.9.7.3 1.4.9 1.4 1.4zM353 242.2c0 1.9.2 2 1 .8 1.3-1.9 1.3-3 0-3-.5 0-1 1-1 2.2zM349.2 249.4c.2 3.6.5 4.3 1.6 3.4 1.6-1.4 1.2-7-.5-7.6-.9-.2-1.2 1-1.1 4.2zM167 249.1c0 .5.5.7 1 .4.6-.3 1-.8 1-1.1 0-.2-.4-.4-1-.4-.5 0-1 .5-1 1.1zM351.9 254.6c-.5 1.5-.7 3.5-.4 4.4.5 1.7-.5 7.7-2 11.3-.5 1.3-.3 1.6.9 1.1.8-.3 1.8-1.4 2.1-2.4.4-1.3 1.2-1.7 2.3-1.3 1.5.6 1.5.5.3-1s-1.1-1.7.3-1.7c1.9 0 2.1-2.1.4-3.8-.7-.7-1.1-3-.9-5.2.3-4.6-1.4-5.4-3-1.4zM165.2 255c0 1.4.2 1.9.5 1.2.2-.6.2-1.8 0-2.5-.3-.6-.5-.1-.5 1.3zM284.9 259.9c1.7 3.1 3.3 3.7 2.9 1-.2-1.3-1.1-2.5-2.1-2.7-1.6-.3-1.7-.1-.8 1.7zM358.1 259.3c-.8 1-.7 1.9.4 3.3 1.4 1.8 1.4 1.7 1.5-1.4 0-3.6-.2-3.8-1.9-1.9zM159.3 266.5c0 .8.4 1.5.9 1.5.4 0 .8-.4.8-.9 0-.6-.4-1.2-.8-1.5-.5-.3-.9.1-.9.9zM359.4 266.8c-1.4.9-2.4 6.2-1.3 6.2 1.7 0 .9 4-1.2 6.1-1.8 1.8-1.9 2.3-.6 4.2.9 1.5 1.1 3.1.6 5.1-.9 3.3.2 2.5 2.6-1.9l1.7-3-.5 4.2c-.4 3.2-.2 4.3.8 4.3.7 0 2 .3 2.8.6 1.3.5 1.4-.1.6-3.6-.5-2.3-1.7-5-2.7-6-1.3-1.4-1.7-3.6-1.7-9.4.1-4.2.1-7.6 0-7.6 0 0-.5.4-1.1.8zM163.5 269c-.3.6.1.7.9.4 1.8-.7 2.1-1.4.7-1.4-.6 0-1.3.4-1.6 1zM353.6 270.6c-.4.9-.4 1.9-.1 2.2.2.3.7-.3 1.1-1.2.4-.9.4-1.9.1-2.2-.2-.3-.7.3-1.1 1.2zM363 271.7c0 2.2.2 2.5 1 1.3 1.3-2 1.3-4 0-4-.5 0-1 1.2-1 2.7zM164.5 273c-.3.5.1 1 1 1s1.3-.5 1-1c-.3-.6-.8-1-1-1-.2 0-.7.4-1 1zM348 274.5c0 .8.2 1.5.4 1.5s1.2.3 2.1.6c1.5.6 1.5.4.4-1.5-1.6-2.5-2.9-2.7-2.9-.6zM150.6 279.8c-.2.4-.1 1.4.5 2.2.7 1.2.9 1 .9-.8 0-2.3-.5-2.8-1.4-1.4zM343.7 280.7c.3.7.6 1.3.8 1.3.2 0 .5-.6.8-1.3.3-.8-.1-1.4-.8-1.4-.7 0-1.1.6-.8 1.4zM350 282.2c0 .9.5 2 1 2.3 1.3.8 1.3-.5 0-2.5-.8-1.3-1-1.3-1 .2zM338.9 284.7c0 .5-.2 2.8-.5 5.3-.5 3.7-.4 4.3.7 3.2 1.8-1.7 3.2-1.5 2.5.3-.6 1.7 1.2 2 3.4.5 1.3-.9 1.3-1.2-.2-2.4-1-.7-1.8-1.8-1.8-2.5 0-1.2-4-5.5-4.1-4.4zm2.6 3.3c.3.5.1 1-.4 1-.6 0-1.1-.5-1.1-1 0-.6.2-1 .4-1 .3 0 .8.4 1.1 1zM67.7 288.3c-.2.6-1.3 1.1-2.5 1.2-1.2.1-2.9 1-3.7 2.1-1.7 2.2-2 3.8-.5 2.9.6-.3.7.1.4 1-.5 1.1 0 1.8 1.5 2.2 1.1.3 2.1.9 2.1 1.4 0 .4 1.4.3 3-.2 1.9-.7 3-1.8 3-3 0-1.1.7-2.2 1.5-2.5 1.8-.7 2-3.8.3-5.1-1.6-1.3-4.6-1.3-5.1 0zM350 289.5c-1 1.2-1 1.5.4 1.5.9 0 1.6-.7 1.6-1.5s-.2-1.5-.4-1.5-.9.7-1.6 1.5zM150 293c-1.3.8-1.3 1 .2 1 .9 0 2-.5 2.3-1 .8-1.3-.5-1.3-2.5 0zM344 299.6c-.1 2.8-2.9 9.2-3 6.6 0-.7-.4-1.1-.9-.8-.5.4-.8 1.7-.7 3.1.2 1.3-.3 2.6-1 2.9-.8.3-1.4 0-1.4-.6 0-2.6-2.5 1.4-4.1 6.4-1.6 5.1-3.9 7.6-3.9 4.3 0-1.1-.5-1.5-1.5-1.1-2.4.9-1.7-1.8.8-2.9 1.6-.7 2.3-2 2.5-4.8.2-2.2-.1-3.7-.8-3.7-.6 0-.9.4-.5.9.3.5.1 1.2-.5 1.6-1.2.7-3-3.4-2.3-5.3.3-.6.1-1.2-.5-1.2-1.7 0-2.1 2.7-.6 4.8 1.3 1.9 1.2 2.3-.7 4.1-1.5 1.4-2 2.8-1.6 4.6.4 2.3.2 2.6-1.6 2.1-1.5-.4-1.7-.2-.8.7 1.4 1.4 1.5 4.1.1 3.2-.6-.3-1.3 0-1.6.9-1 2.5-3.5 2.8-5.5.5l-1.9-2.2v2.7c0 1.8.4 2.5 1.2 2 .8-.5.9-.2.5 1-.4 1-.7 2.2-.7 2.8 0 .6-.7.7-1.6.4-1-.4-1.4-.2-1 .6.3.7.9 2.1 1.2 3 .4 1 1.2 1.8 1.9 1.8.8 0 2.1.7 2.9 1.6 1.4 1.3 1.6 1.4 1.6 0 0-.8-.4-1.8-1-2.1-1.7-1.1-1.1-2.5.8-1.8 1.5.6 1.5.5-.2-1.2s-1.7-1.9-.1-3.1c1-.8 1.4-1.8.9-2.5-.5-.8-.2-1.1.8-.6.9.3 2 .1 2.6-.5 1.2-1.2 3.5-.1 2.6 1.3-.3.6-.6 2.6-.6 4.5s-.4 3.6-.9 3.9c-.4.3-.6 1.1-.4 1.8 1.1 3 1.4 7.2.5 7.7-.5.3-.5 1.1 0 2 .8 1.3 1 1.2 1-.3 0-.9.5-1.7 1.1-1.7.5 0 .7-.5.4-1-.3-.6 0-1 .7-1 .8-.1.7-.4-.4-1-1-.6-1.4-1.8-1.1-3 .4-1.6.9-1.8 2.5-.9 1.1.6 2.2.8 2.5.5.3-.2 1.6-.1 2.9.5 1.8.6 2.4.6 2.3-.4-.4-3.3.2-4.6 1.7-4 1.4.5 1.4.3.3-1.6-1.6-2.5-2.9-2.7-2.9-.5 0 1.2-.6 1.5-2.2.9-1.3-.4-3.1-.7-4-.6-2.2 0-2.4-2.7-.4-3.5.9-.3 1.2-1.2.8-2.2-.5-1.5-.4-1.5 2.1.1 3.2 2.1 3.7 2.1 3.7.1 0-.8 1.4-2.9 3.1-4.7l3.1-3-2.3-1.8c-2-1.5-2.2-2.1-1.4-4.6.6-1.7 1.9-2.9 3.2-3.1 1.6-.2 2.4-1.4 3.2-4.8.7-2.7 1.7-4.4 2.6-4.4.8 0 1.5-.4 1.5-.8 0-.5.9-1.8 2-3 1.5-1.6 1.7-2.2.6-2.2-.7 0-1.7.8-2.1 1.7-.6 1.7-.7 1.7-2.1-.1-1.3-1.9-1.4-1.8-1.4 1zm-7 22.4c0 1.1-.4 2-1 2-.5 0-1-.9-1-2s.5-2 1-2c.6 0 1 .9 1 2zm-4.6 16.6c.5 1.4.4 1.5-.9.4-1.7-1.4-1.9-2-.6-2 .5 0 1.2.7 1.5 1.6zM351 300.9c0 1.3 2.9 3.5 3.7 2.8.7-.8-1.5-3.7-2.8-3.7-.5 0-.9.4-.9.9zM365 303c0 .5.5 1 1 1 .6 0 1-.5 1-1 0-.6-.4-1-1-1-.5 0-1 .4-1 1zM368 306.9c0 .6.4 1.3 1 1.6.6.3.7-.1.4-.9-.7-1.8-1.4-2.1-1.4-.7z"/><path d="M317.5 311.4c.5 2.3.3 2.7-.9 2.3-.9-.4-1.6-.4-1.6-.1 0 .7 2.7 3.4 3.4 3.4 1 0 .6-5.4-.5-7-.8-1.1-.9-.8-.4 1.4zM78.4 313.4c.5 1.5.2 1.7-1.4 1.3-1.3-.3-2 0-2 .9 0 .8-.6 1.1-1.5.8-2.4-1-1.7 1.4 1 3.2 2.5 1.6 7.5 1.3 7.5-.5 0-.5.7-1.7 1.6-2.6 1.9-1.8 1.2-4.5-1.1-4.5-.9 0-1.3.4-1 1 .9 1.4-.8 1.2-2.4-.3-1.2-1-1.3-.9-.7.7zM310 316c-.9.6-1 1-.3 1 .6 0 1.5-.5 1.8-1 .8-1.2.4-1.2-1.5 0zM338 317.2c0 .4.9 1.2 1.9 1.7 1.5.8 2 .7 2.5-.5.3-.9.6-1.6.6-1.7 0-.1-1.1-.2-2.5-.2s-2.5.3-2.5.7zM345.7 317.9c-.4 1.7-.3 2.1.5 1.3.5-.5.8-1.6.6-2.3-.3-.8-.7-.3-1.1 1zM366 316.7c0 .5.7 1.7 1.5 2.7 1.4 1.9 1.5 1.9 1.3-.7-.1-1.5-.8-2.7-1.5-2.7s-1.3.3-1.3.7zM255 318c0 .5.5 1 1.1 1 .5 0 .7-.5.4-1-.3-.6-.8-1-1.1-1-.2 0-.4.4-.4 1zM308.7 323.6c.3.9 0 2-.7 2.4-.8.5-1 1.5-.5 2.6.7 1.7.9 1.6 1.5-.6 1.1-3.6 1.1-6 0-6-.5 0-.7.7-.3 1.6zM338.6 326.5c-.3.9-.6 2.2-.5 2.8 0 .7.5.1 1-1.2s.8-2.6.5-2.8c-.2-.2-.6.3-1 1.2zM301.5 330c-.3.5.4 2.3 1.7 4 1.9 2.7 2.3 2.9 2.9 1.3 1-3-3.1-7.7-4.6-5.3zm2.5 1.5c.7.9.8 1.5.2 1.5-.5 0-1.2-.7-1.6-1.5-.3-.8-.4-1.5-.2-1.5s.9.7 1.6 1.5zM290 335.5c.7.8 2.2 1.5 3.4 1.5 1.8 0 1.7-.2-.8-1.5-3.6-1.9-4.2-1.9-2.6 0zM300 337.8c-1 1.1-1.1 1.7-.3 1.9.7.3.9 1.1.6 1.9-.3.8-.1 1.4.5 1.4 1.2 0 2.3-5.2 1.4-6.2-.4-.3-1.4.1-2.2 1zM344.5 337.1c-.9 1.4-.2 2 1.4 1 .8-.6.9-1.1.3-1.5-.6-.3-1.4-.1-1.7.5zM282 338.5c0 .8.4 1.5 1 1.5.5 0 .7-.7.4-1.5-.4-.8-.8-1.5-1-1.5-.2 0-.4.7-.4 1.5zM267.6 339.5c-.3.8-.1 1.5.4 1.5.6 0 1-.7 1-1.5s-.2-1.5-.4-1.5-.6.7-1 1.5zM336 338.9c0 .6.5 1.3 1 1.6.6.3 1-.1 1-.9 0-.9-.4-1.6-1-1.6-.5 0-1 .4-1 .9zM359.7 338.7c-.7 1.1 1 4 1.8 3.1.4-.4.3-1.4-.3-2.4-.5-.9-1.2-1.2-1.5-.7zM78.4 340.2c-.3.4.1.8.8.8 1 0 1 .2.1.8-1.4.9-.5 2.6 2 3.5 1.1.4 1.7.1 1.7-.8 0-.8.5-1.5 1-1.5.6 0 1-.8 1-1.8 0-1.4-.4-1.2-2 .8-1 1.4-2.2 2.1-2.6 1.7-.4-.4-.2-1.3.4-1.9.7-.7 1.2-1.5 1.2-1.8 0-1-3-.8-3.6.2zM266.5 343c-.3.5.1 1 .9 1 .9 0 1.6-.5 1.6-1 0-.6-.4-1-.9-1-.6 0-1.3.4-1.6 1zM353 345c0 1.6.4 3 .9 3 1 0 2.2-4 1.5-5.2-1.1-1.8-2.4-.6-2.4 2.2zM340 344.6c0 .8.5 1.2 1 .9.6-.3 1-1 1-1.6 0-.5-.4-.9-1-.9-.5 0-1 .7-1 1.6zM336.3 346.2c.3 1 .2 2-.4 2.3-1 .7-.3 2.5 1.1 2.5 1.7 0 2-3.4.4-4.9-1.5-1.5-1.6-1.5-1.1.1zM330 347.5c.7.8 1.7 1.5 2.2 1.5.6 0 .5-.7-.2-1.5s-1.7-1.5-2.2-1.5c-.6 0-.5.7.2 1.5zM269 349c0 .5.5 1 1 1 .6 0 1-.5 1-1 0-.6-.4-1-1-1-.5 0-1 .4-1 1zM357 351.1c0 1.1.5 1.7 1 1.4.6-.3 1-1.3 1-2.1s-.4-1.4-1-1.4c-.5 0-1 .9-1 2.1zM324.6 352.5c-.3.8-1.2 1.5-2.1 1.5-.8 0-1.5.4-1.5 1 0 .5.7.7 1.5.4.8-.4 1.5-.1 1.5.6 0 1 .3 1 1.5 0 1.6-1.3 2.1-5 .6-5-.5 0-1.1.7-1.5 1.5zM263.1 353.6c0 1.1.3 1.4.6.6.3-.7.2-1.6-.1-1.9-.3-.4-.6.2-.5 1.3zM317.1 353.6c0 1.1.3 1.4.6.6.3-.7.2-1.6-.1-1.9-.3-.4-.6.2-.5 1.3zM52.7 358.6c-2.6 2.5-2.6 3.6-.5 8.1 1.4 2.8 7.3 5 9.2 3.4.7-.6 1.5-.8 1.9-.5.3.3 1.1-.3 1.8-1.4.7-1.1 1.9-1.8 2.8-1.5 1.1.3 1 0-.3-1.1-2-1.6-2-1.6 0-1.7 1 0 1.3-.3.7-.6-.7-.2-1.3-1.1-1.3-1.9 0-.8-.1-1.4-.2-1.4-.2-.1-2.1-.3-4.3-.6-2.2-.4-4.4-1.2-4.8-2-1.1-2-2.1-1.8-5 1.2zM332.1 357.6c0 1.1.3 1.4.6.6.3-.7.2-1.6-.1-1.9-.3-.4-.6.2-.5 1.3zM324 360.4c0 .8-.3 2.3-.6 3.3s.2.7 1-.7c1.8-3 2-4 .6-4-.5 0-1 .6-1 1.4zM346 360.6c0 1.4-.3 1.4-1.5.4-1.2-1-1.5-1-1.5.2 0 .8.3 1.8.6 2.1.9.9 4.6-1.2 3.9-2.3-.3-.4.1-1.1.7-1.3.8-.3.6-.6-.4-.6-1-.1-1.8.6-1.8 1.5zM80 361c0 .5.5 1 1.1 1 .5 0 .7-.5.4-1-.3-.6-.8-1-1.1-1-.2 0-.4.4-.4 1zM71 363c-1.9 1.2-.9 2 3.1 2.5 2 .3 3.6 0 4.1-.8.5-.7.8 0 .8 1.9 0 4.5 3.2 7.4 8.1 7.4 2.2 0 4.8.4 5.8.9 1.5.8 1.7.4 1.9-3 .2-2.5-.1-3.9-.9-3.9-.7 0-.9-.3-.6-.7 1-.9-3.1-3.5-4.3-2.8-.6.3-1 .1-1-.6 0-.8-2-1-6.5-.7-3.6.2-6.5 0-6.5-.4 0-1.1-2.2-1-4 .2zM335.6 366.5c-.3.8-.1 1.5.4 1.5.6 0 1-.7 1-1.5s-.2-1.5-.4-1.5-.6.7-1 1.5zM347.1 366.6c-1.8 2.1-.6 3 1.4 1.1.8-.9 1.5-1.8 1.5-2.1 0-1.1-1.5-.5-2.9 1zM367 366c0 .5.4 1 .9 1 .6 0 1.3-.5 1.6-1 .3-.6-.1-1-.9-1-.9 0-1.6.4-1.6 1zM148.5 369c-.3.5-.1 1.9.5 3s.8 2 .4 2c-.3 0-.1.7.6 1.5 1.5 1.8 4 2 4 .2 0-.6.6-2.4 1.4-3.9 1.2-2.3 1.2-2.7-.1-3.2-2.3-.9-6.1-.7-6.8.4zM337.7 369.7c-1.4 1.3-.6 3.3 1.2 3.3 1.1 0 2.2.8 2.5 1.7.3 1 .4.6.2-1-.2-1.8.1-2.7 1-2.7.8 0 1.4-.5 1.4-1 0-.6-1.4-.3-3.1.6-2.9 1.5-3.1 1.5-2.6 0 .7-1.7.5-2-.6-.9zM357 371.6c0 .8.5 1.2 1 .9.6-.3 1-1 1-1.6 0-.5-.4-.9-1-.9-.5 0-1 .7-1 1.6zM353 372.5c0 .9.5 1.5 1.1 1.3.6-.2 1.1-.8 1.1-1.3s-.5-1.1-1.1-1.3c-.6-.2-1.1.4-1.1 1.3zM326 373.4c0 2.4 1.7 2.8 2.3.6.3-1.3 0-2-.9-2-.8 0-1.4.6-1.4 1.4zM344 373.6c0 1.6.9 1.8 2.8.5 1-.6.9-1-.7-1.4-1.4-.3-2.1 0-2.1.9z"/><path d="M351.1 373.7c-.1 1.3-.7 2.3-1.3 2.3-.7 0-2 .5-2.8 1-1.3.9-1.3 1.1 0 1.9.8.6 1.1 1.3.7 1.7-.9.9-3.7-1.5-3.7-3.3 0-.8-.4-1.1-1-.8-.5.3-2-.1-3.2-.9-3.4-2.4-4.8-2-4.8 1.3 0 3.8 1 4.3 4.3 2.6 2.2-1.1 2.8-1.1 4.1.4.9 1 1.3 2.1.9 2.4-.3.4-.1.7.6.7s1 .4.6 1c-.3.5-1.5 0-2.7-1.2-1.9-1.9-2.2-2-3.3-.5-.7 1-2 1.7-2.9 1.7-1.6 0-2 1.1-1.6 4 .3 2.3.8 2.5 2.9.6 1.7-1.5 1.9-1.6 2.5-.1.3.9.4 2.1 0 2.6-.7 1.2.3 1.1 4.3-.3 1.8-.7 3.3-1.6 3.3-2.1s.7-1.5 1.5-2.4c1.3-1.2 1.3-1.8.3-3.1-1.1-1.3-1-1.4.8-.8 2.9.9 3.4-.8 1.8-6.4-.7-2.7-1.2-3.6-1.3-2.3zM376.5 374c-.3.5-.1 1 .4 1 .6 0 1.1-.5 1.1-1 0-.6-.2-1-.4-1-.3 0-.8.4-1.1 1zM360.9 377.1c1.2 1.1 2.1 2.6 2.1 3.4 0 .8.5 1.5 1.1 1.5.7 0 .9-.9.5-2.3-.3-1.2-.6-2.7-.6-3.2 0-.6-1.2-1.1-2.6-1.1l-2.6-.2 2.1 1.9zM146.5 378c-.3.6.1.7.9.4 1.8-.7 2.1-1.4.7-1.4-.6 0-1.3.4-1.6 1zM330.6 379.9c-.4.7-.5 1.5-.2 1.8.9.9 1.9-.4 1.4-1.8-.4-1.1-.6-1.1-1.2 0zM41.2 381.1c.2.7 1 1.5 1.7 1.7.8.3 1.2-.1.9-.9-.2-.7-1-1.5-1.7-1.7-.8-.3-1.2.1-.9.9zM359.6 381.5c.4.8.8 1.5 1 1.5.2 0 .4-.7.4-1.5s-.4-1.5-1-1.5c-.5 0-.7.7-.4 1.5zM371.7 382.5c-.6 3.5-.1 4.3 1.5 2.7.8-.8.8-1.8.1-3.4-1-2.2-1-2.2-1.6.7zM307 382.5c-.8 1-.9 1.5-.2 1.5.6 0 .9.8.6 1.7-.5 1.5-.3 1.5 1-.1 1.7-2.2 2.1-4.6.7-4.6-.5 0-1.4.7-2.1 1.5zM368 382.1c0 .5.5.7 1 .4.6-.3 1-.8 1-1.1 0-.2-.4-.4-1-.4-.5 0-1 .5-1 1.1zM438.6 382.5c-.3.8-.1 1.5.4 1.5 1.3 0 2.2-1.8 1.1-2.4-.5-.3-1.1.1-1.5.9zM62 384.1c0 .6-.4.7-1 .4-.5-.3-1-.3-1 .2 0 .8-3 1.3-7.5 1.5-1.1 0-3.5-.3-5.4-.7-3-.7-3.3-.6-2.8.8.4 1 .3 3.7-.2 6.2-.8 4.1-.5 4.9 2.6 9.6 6.9 10.5 13.7 18 15.7 17.3.8-.3 1.7 0 2.1.5.3.6 1.1.9 1.6.6.5-.4.9-.1.9.4 0 .6.7 1.1 1.5 1.1s1.5.7 1.5 1.5c0 1.1.7 1.4 2.8 1 1.5-.3 3.2-.7 3.9-.9.7-.1 1.5-.5 1.9-.8.3-.4 1.6-.3 2.8.2 2 .7 2.2.6 1.8-1.6-.2-1.3-1.1-2.4-1.8-2.4-.8 0-1.4-.5-1.4-1 0-.6-.6-1-1.4-1-1.2 0-4.1-5.4-3.8-7.2.1-.4.3-2.1.4-3.8.2-2.1 1.6-4.6 4.5-7.7 4.7-5 5.3-6.8 2.4-7.8-1.3-.4-1.8-1.2-1.4-2.2.9-2.2-1.1-3-7.5-2.8-3.1.1-6-.2-6.3-.7-.8-1.3-4.9-1.8-4.9-.7zM330.6 384.3c.3 1 .9 1.5 1.2 1.2.3-.3 0-1.1-.7-1.8-1-.9-1.1-.8-.5.6zM356.1 385.7c-1 2.2-1.4 2.4-2.2 1.2-.8-1.2-1-1.2-1.8.1-1.3 1.9-.3 3.3 2 2.7 1.1-.3 1.9 0 1.9.8 0 1.4 9 5.6 10.2 4.9.5-.3.8-1.2.8-2.1 0-1.3-.3-1.3-1.5-.3-1.3 1-1.9.9-3.8-.6-1.2-1-2.3-1.9-2.5-2-.1-.1.2-1.3.7-2.8.9-2.1.8-2.6-.5-2.6-.8 0-1.2-.5-.9-1 .3-.6.2-1-.3-1s-1.4 1.2-2.1 2.7zM366.5 385c.3.5 1 1 1.6 1 .5 0 .9-.5.9-1 0-.6-.7-1-1.6-1-.8 0-1.2.4-.9 1zM182.5 392c.4.6 1.1.8 1.6.5 1.4-.9 1.1-1.5-.7-1.5-.8 0-1.2.5-.9 1zM439.5 392c.3.5.8 1 1.1 1 .2 0 .4-.5.4-1 0-.6-.5-1-1.1-1-.5 0-.7.4-.4 1z"/><path d="M446 391.5c-.1.5-.2 1.3-.1 1.7 0 .3-5 1-11.2 1.4-6.6.4-10.4 1-9.2 1.4 1.8.7 1.8.8-.5 1.2l-2.5.5 2.7.2c1.4 0 2.9-.5 3.1-1.2.4-.7.6-.6.6.5.1.9-.5 1.9-1.1 2.1-.7.3.3.3 2.2 0 2.7-.3 3.1-.2 2 .6-1.2.8-.7 1.1 2.2 1.1 2 0 4.3.3 5.2.6.9.3 1.6.1 1.6-.4 0-.6-1.2-1.3-2.7-1.5-2-.3-1.5-.4 1.5-.6 2.3 0 4.2-.6 4.2-1.2s-1.3-.8-3-.5c-1.6.2-3 0-3-.5s2.9-.9 6.5-.9c3.7 0 6.5-.4 6.5-1s-.9-1-1.9-1c-1.1 0-2.2-.8-2.4-1.8-.3-.9-.6-1.3-.7-.7z"/><path d="M448.5 392c-.3.5-.1 1 .4 1 .6 0 1.1-.5 1.1-1 0-.6-.2-1-.4-1-.3 0-.8.4-1.1 1zM348 393c-1.2.8-1.2 1 .3 1.6 1.1.4 2.3.1 3-.6.9-1 .9-1.1 0-.6-.6.3-1.3.2-1.5-.4-.2-.6-.9-.6-1.8 0zM357.5 396.9c-.3.5-.1 1.2.4 1.5.5.4 1.2 0 1.5-.6.5-1.1.7-1.1 1.2 0 .3.6 1 1 1.5.6 1.4-.8 0-2.4-2.1-2.4-1 0-2.1.4-2.5.9zM445 398.1c0 .5.9.9 2 .9s2-.2 2-.4-.9-.6-2-.9c-1.1-.3-2-.1-2 .4zM363 401c0 1.1.4 2 .9 2s.7-.9.4-2c-.3-1.1-.7-2-.9-2-.2 0-.4.9-.4 2zM426.1 403.5c0 1.1.6 3.1 1.3 4.5 1.2 2.1 1.2 2.6-.3 3.7-1.1.8-1.2 1.2-.3 1.3.9 0 .8.7-.5 2.4-1 1.3-2.4 2.1-3.2 1.8-.9-.3-1.2-.1-.7.6.5.8 0 1.2-1.3 1.2-1.2 0-2.1.7-2.1 1.5 0 1.9-3.8 5.8-4.9 5.1-.5-.3-1.9.3-3.1 1.4-1.2 1.1-2.6 1.7-3.1 1.5-.4-.3-1.6.8-2.5 2.5-1.9 3.1-4.7 5-3.7 2.4.3-.7 1-1.4 1.6-1.4.8 0 .7-.4-.1-1.2-1.4-1.4-4.5.9-3.8 2.9.3.7.1 1.3-.4 1.3s-.7.6-.5 1.2c.7 1.9-3.8 4.7-7.8 5-2 .1-3.4.5-3.2.8.2.4-.9 1.7-2.5 2.8-1.8 1.4-2.7 2.8-2.4 3.7.4 1.1.2 1.3-.9 1-.8-.4-1.7.1-2 .9-.4 1-1.9 1.6-3.9 1.6-1.8 0-2.8.4-2.1.8.8.5.4 1.5-1.1 3.3-1.8 2.1-2.7 2.4-4.1 1.7-1.3-.8-1.6-.7-1.3.3.7 2-1.6 3.9-4.1 3.2-1.2-.3-2.1-.1-2.1.6 0 .6.5 1.1 1 1.1.6 0 1 .4 1 1 0 .5-.6 1-1.4 1-.9 0-1.2.7-.9 2 .4 1.4 0 2-1.1 2-.9 0-1.9.7-2.2 1.5-.4.8-1.2 1.5-2 1.5s-1.4.4-1.4 1c0 1.3-3.7 1.3-4.2-.1-.2-.7-1.3-.6-3.3.2-1.7.8-4.3 1.3-5.9 1.4-1.6 0-3.1.5-3.3 1.2-.3.7.4.9 1.9.5 2.1-.5 2.2-.4.9 1.1-1.9 2.4-.7 2.1 3.9-.9 2.2-1.5 4.4-2.4 4.7-2 .4.4.1 1.1-.6 1.5-.9.6-1.1 1.8-.7 3.5.6 2.6.1 3-3.6 2.7-.9-.1-1.9.3-2.3 1-.5.8-.1.9 1.5.4 1.9-.6 2.2-.4 1.7 1-.4.9-.7 2-.7 2.3 0 .4-.5 0-1.1-.8-.8-1.2-1-.9-.6 1.3.2 1.5 0 2.8-.4 2.8-.5.1-1.2.2-1.6.3-1.7.3-5.7 3.6-4.4 3.6 1.1 0 1.1.3.1 1.5-2.3 2.8-.1 2.8 8.2 0 11.2-3.8 24.2-9.4 34.1-14.9 9.6-5.2 12.5-7.3 20.5-14.6 3.2-3 10.1-8.9 15.2-13 9.3-7.5 14.4-13.4 19.4-22.4 1.5-2.7 4.3-7.4 6.3-10.4l3.5-5.6-2.1-1.7c-1.1-1-2.1-2.7-2.1-3.8 0-1.2-.4-2.1-1-2.1-.5 0-.7.7-.4 1.5.8 1.9-.5 1.9-3 0-1.1-.8-1.4-1.5-.7-1.5s.9-.5.6-1c-.8-1.3 1.6-1.3 4.9 0 1.4.5 2.8.6 3 .1.7-1.1-9.7-3.5-12.8-2.9-1.4.3-2.7 0-3-.6-.2-.6-.5-.2-.5.9zM341.6 411.6c1.1 4.8 2.3 6.3 2.4 3.1 0-1.6-.7-3.5-1.5-4.4-1.4-1.4-1.5-1.3-.9 1.3z"/><path d="M424.1 411.6c0 1.1.3 1.4.6.6.3-.7.2-1.6-.1-1.9-.3-.4-.6.2-.5 1.3zM335.1 412.6c0 1.1.3 1.4.6.6.3-.7.2-1.6-.1-1.9-.3-.4-.6.2-.5 1.3zM339.2 414.5c0 1.6.2 2.2.5 1.2.2-.9.2-2.3 0-3-.3-.6-.5.1-.5 1.8zM332.8 418.2c-2 2-2.3 3.8-.8 3.8.9 0 3.5-5 2.8-5.5-.2-.1-1.1.7-2 1.7zM95.1 419.5c-3.3 1.8-4 3.3-3.5 7.2.3 2.4 0 3.5-1.1 4-.9.3-1.4 1.2-1.1 1.9.5 1.2-.5 1.8-2.5 1.6-.4-.1-.5.8-.2 1.8.3 1.1.1 2-.4 2s-1.5 1.2-2.2 2.6c-1.1 2.4-.9 3 1.6 5.6 1.5 1.7 4.1 3.9 5.7 5.1l2.9 2 2-2.4c1-1.3 2.2-2.4 2.6-2.4.3 0 1.4-.5 2.5-1.1 1.8-1.1 3.2-6.4 1.6-6.4-.4 0-1.4-1.5-2.1-3.3-.6-1.7-1.3-3.4-1.4-3.7-.2-.3-.6-1.5-1-2.8-.4-1.2-1.2-2.2-1.7-2.2s-.6.4-.3 1c.3.5.1 1-.4 1-1.7 0-1.3-1.5 1.2-4.2 1.4-1.5 2.2-3.6 2.2-5.3-.2-3.4-1.1-3.8-4.4-2zM358.3 418.7c-.7.2-1.3 1.3-1.3 2.4 0 1-.5 1.9-1.2 1.9-.6 0-.9.2-.7.5 1.3 1.2 4.5-.9 4.7-3.1.1-1.3.1-2.4-.1-2.3-.1 0-.8.3-1.4.6zM361.6 421.6c-.9 2.3-.7 5.4.3 5.4.5 0 1.1-1.6 1.3-3.5.4-3.6-.5-4.7-1.6-1.9zM181.5 422c-.3.5-.1 1 .4 1 .6 0 1.1-.5 1.1-1 0-.6-.2-1-.4-1-.3 0-.8.4-1.1 1zM186.6 431.3c.3 1 .9 1.5 1.2 1.2.3-.3 0-1.1-.7-1.8-1-.9-1.1-.8-.5.6zM189.7 433.7c-.4.3-.7 1.1-.7 1.7 0 .6.5.5 1.2-.2.6-.6.9-1.4.7-1.7-.3-.3-.9-.2-1.2.2zM389 436.5c-1.1 1.3-1 1.4.4.9.9-.3 1.6-1 1.6-1.5 0-1.3-.6-1.1-2 .6zM178.9 438c-1.3 1-1.8 1.9-1.1 2 1.4 0 1.6 3.2.2 4.6-1.6 1.6-2.4 14.4-.9 14.4.8 0 1-1.2.6-4-.3-2.4-.1-4 .5-4s.7-.7.4-1.6c-.4-.9-.2-1.3.5-.8.7.4.9 0 .5-1.3-.4-1.1-.2-3.3.4-4.9.8-2.1.8-3 0-3.2-.7-.3-.4-1 .7-1.8 1-.7 1.5-1.4 1.2-1.4-.4 0-1.7.9-3 2zM349.6 439.5c-1.5 1.6-2.6 3.2-2.6 3.6 0 1.3 2.4 1.1 3.9-.4 2-1.8.4 4.3-1.6 6.6-.9.9-1.3 2-1 2.3 1.1 1.1 6.8-5.7 5.9-7-.4-.6-.9-2.5-1.1-4.1-.4-4.1-.6-4.1-3.5-1zM393 439c0 .5.7.7 1.5.4.8-.4 1.5-.8 1.5-1 0-.2-.7-.4-1.5-.4s-1.5.4-1.5 1zM363.5 447c.4.6 1.1.8 1.6.5 1.4-.9 1.1-1.5-.7-1.5-.8 0-1.2.5-.9 1zM355.6 448.7c-.6 1.4-.5 1.5.5.6.7-.7 1-1.5.7-1.8-.3-.3-.9.2-1.2 1.2zM341.1 454.5c-1.3 1.4-2.1 2.9-1.7 3.2.7.7 5.6-3.6 5.6-4.9 0-1.5-1.5-.8-3.9 1.7zM180.9 457.7c-.6 1.6-.8 3.8-.6 5 .2 1.2-.1 2.4-.7 2.6-.6.2-.8.7-.5 1.1.3.3 1.4-.1 2.5-.8 1.6-1.3 1.7-1.8.7-3.5-1-1.6-1-2.3.2-3.5 1.7-1.7 2-3.6.5-3.6-.6 0-1.5 1.2-2.1 2.7zM190.3 455.7c-1.4.5-1.8 4.3-.5 4.3 1.2 0 3.2-2.3 3.2-3.7 0-1.3-.6-1.5-2.7-.6zM340.5 459.1c-1.1 1.7.1 2.1 1.5.4.8-.9.8-1.5.2-1.5-.6 0-1.4.5-1.7 1.1zM323.6 460.5c-.8 2.3-.8 3.5.3 3.5 1.3 0 2.3-3.2 1.3-4.2-.6-.6-1.2-.3-1.6.7zM191 468.6c0 .8.5 1.2 1 .9.6-.3 1-1 1-1.6 0-.5-.4-.9-1-.9-.5 0-1 .7-1 1.6zM325.6 482.9c-.3.4.6.6 1.9.3 1.4-.2 2.5-.6 2.5-.8 0-.8-3.9-.4-4.4.5zM338.5 484c-.3.5-.1 1 .4 1 .6 0 1.1-.5 1.1-1 0-.6-.2-1-.4-1-.3 0-.8.4-1.1 1zM216 486c0 .5.5 1 1.1 1 .5 0 .7-.5.4-1-.3-.6-.8-1-1.1-1-.2 0-.4.4-.4 1zM292 486.1c0 .5.5.7 1 .4.6-.3 1-.8 1-1.1 0-.2-.4-.4-1-.4-.5 0-1 .5-1 1.1zM339 487.9c0 .5.5 1.3 1 1.6.6.3 1 .2 1-.4 0-.5-.4-1.3-1-1.6-.5-.3-1-.2-1 .4zM305.5 492c-1.9.8-1.9.9.3.9 1.2.1 2.2-.4 2.2-.9 0-.6-.1-1-.2-.9-.2 0-1.2.4-2.3.9zM310 494c-2.4 1.5-.7 1.9 2 .5 1.5-.8 1.9-1.4 1-1.4-.8-.1-2.2.3-3 .9zM192 496c0 .5.5 1 1.1 1 .5 0 .7-.5.4-1-.3-.6-.8-1-1.1-1-.2 0-.4.4-.4 1zM269.5 496c.3.5 1.4 1 2.3 1 1.5 0 1.5-.2.2-1-2-1.3-3.3-1.3-2.5 0zM274.8 496.7c.7.3 1.6.2 1.9-.1.4-.3-.2-.6-1.3-.5-1.1 0-1.4.3-.6.6zM195.5 501c.3.5 1.1 1 1.6 1 .6 0 .7-.5.4-1-.3-.6-1.1-1-1.6-1-.6 0-.7.4-.4 1z"/></svg>